<svg width="789" height="438" fill="none" xmlns="http://www.w3.org/2000/svg"><path d="M683.5 261.5C755 249 771.642 194.871 788 180v224H456c0-6.105 4.483-26.486 32.109-62.927 64.219-81.71 153.599-72.267 195.391-79.573z" fill="#222"/><path fill-rule="evenodd" clip-rule="evenodd" d="M1 0H0v402h282v-32h-2v30h-39v-30h-2v30h-38v-30h-2v30h-38v-37h18v-2h-18v-12h-2v12h-38v-38h38v-2h-38v-38h38v-2h-38v-38h38v28c0-3.805.708-7.444 2-10.793V243h17.207c3.349-1.292 6.988-2 10.793-2h-28v-38h38v38h2v-38h38v38h2v-38h39v38h2V0H1zm1 41V2h37v39H2zm39 0V2h38v39H41zm40 0V2h38v39H81zm40 0V2h38v39h-38zm40 0V2h38v39h-38zm40 0V2h38v39h-38zm40 0V2h39v39h-39zm0 2h39v38h-39V43zm0 40h39v38h-39V83zm0 40h39v38h-39v-38zm0 40h39v38h-39v-38zm-82 200v37h-38v-37h38zm-40 0v37H81v-37h38zm-40 0v37H41v-37h38zm-40 0v37H2v-37h37zm40-2H41v-38h38v38zm-40 0v-38H2v38h37zm40-40H41v-38h38v38zm-40 0v-38H2v38h37zm40-40H41v-38h38v38zm-40 0v-38H2v38h37zm40-40H41v-38h38v38zm-40 0v-38H2v38h37zm40-40H41v-38h38v38zm-40 0v-38H2v38h37zm40-40H41v-38h38v38zm-40 0v-38H2v38h37zm40-40H41V83h38v38zm-40 0V83H2v38h37zm40-40H41V43h38v38zm-40 0V43H2v38h37zm42 0V43h38v38H81zm40 0V43h38v38h-38zm40 0V43h38v38h-38zm40 0V43h38v38h-38zm0 2h38v38h-38V83zm0 40h38v38h-38v-38zm0 40h38v38h-38v-38zm-82 160v38H81v-38h38zm0-2H81v-38h38v38zm0-40H81v-38h38v38zm0-40H81v-38h38v38zm0-40H81v-38h38v38zm0-40H81v-38h38v38zm0-40H81V83h38v38zm2 0V83h38v38h-38zm40 0V83h38v38h-38zm0 2h38v38h-38v-38zm0 40h38v38h-38v-38zm-2 78h-38v-38h38v38zm0-40h-38v-38h38v38zm0-40h-38v-38h38v38z" fill="#791515"/><path d="M463.91 305.687c24.471-1.195 30.254-23.731 30.087-34.85V1H280.884v240.961m183.026 63.726c-30.588 1.493-33.596-14.187-33.596-34.85 0-19.337-11.407-28.876-39.113-28.876m72.709 63.726h-51.147m-21.562-63.726c-18.854 4.381-20.058 23.4-20.058 34.85V349H160v-70.197c-.501-12.281 3.145-36.842 29.621-36.842h91.263m110.317 0H280.884" stroke="#676767" stroke-width="2"/><path d="M179.5 350v21H397v-40.043M400 267c-2.8 0-3.167 4.333-3 6.5v57.457M400 267c3.5 0 3 6.5 3 6.5-.333 10.667 3.6 35.1 24 47.5 9.93 6.036 20.087 9.266 30 9.957M400 267h-29M493.5 22.5h25v251c.667 8.667-2.1 29.4-18.5 43-12.517 10.38-27.457 15.541-43 14.457m0 0h-60" stroke="#676767" stroke-width="2"/><path stroke="#791515" stroke-width="2" d="M321 73h133v65H321z"/><path d="M377 84l-21 21 21 21M399 84l21 21-21 21" stroke="#791515" stroke-width="2"/><path d="M321 171h133M194 263h133M321 204h133M194 296h133" stroke="#fff" stroke-width="2"/><circle cx="439" cy="405" r="33" fill="#791515"/><path d="M642.569 152.299v-.627l-.564-.273C624.831 143.084 613 125.549 613 105.267 613 76.957 636.053 54 664.5 54S716 76.957 716 105.267c0 20.282-11.831 37.817-29.005 46.132l-.564.273v38.305c0 6.095-5.505 17.023-21.328 17.023-15.833 0-22.338-11.738-22.534-17.041v-37.66zM642 170h45M642 152h45" stroke="#676767" stroke-width="2"/><path d="M665 1v21M586 33l14.849 14.85M554 111h21M754 111h21M741.849 33L727 47.85" stroke="#fff" stroke-width="2"/><path d="M642 188h45" stroke="#676767" stroke-width="2"/><circle cx="444.5" cy="370.5" r="30.5" stroke="#fff" stroke-width="2"/><path d="M444.5 340h138l33.5 24M472 357h94.5M472 384h94.5M444.5 401h138l33.5-24" stroke="#fff" stroke-width="2"/><circle cx="444.5" cy="370.5" r="15.5" fill="#151515" stroke="#fff" stroke-width="2"/><path d="M604.515 386c.515-.477 11.288-6.778 13.316-8.657 2.029-1.878 3.169-4.425 3.169-7.081 0-2.657-1.14-5.204-3.169-7.082-2.028-1.879-13.316-7.703-13.831-8.18l.515 15.262V386z" fill="#fff"/><path d="M582 340a14.995 14.995 0 00-13.858 9.26 14.995 14.995 0 003.251 16.347c1.107 1.106 3.515 5.365 0 8.933a15.56 15.56 0 00-3.251 5.028A15.952 15.952 0 00567 385.5c0 2.035.388 4.051 1.142 5.932a15.56 15.56 0 003.251 5.028 14.986 14.986 0 004.867 3.36c1.82.779 3.77 1.18 5.74 1.18" stroke="#fff" stroke-width="2"/><path d="M173.5 75.5C190.406 50.61 224.067 14.051 240 .502V0H0v275c6.54 0 28.956-2.117 68-25 87.547-53.193 84.368-143.387 105.5-174.5z" fill="#222"/><circle cx="124" cy="123" r="69" fill="#151515" stroke="#676767" stroke-width="2"/><path d="M175.697 122.5c-.146.171-.322.375-.526.609a88.785 88.785 0 01-3.054 3.304 105.133 105.133 0 01-11.25 10.044C151.346 143.778 138.312 151 124 151c-14.312 0-27.346-7.222-36.867-14.543a105.182 105.182 0 01-11.25-10.044 88.796 88.796 0 01-3.054-3.304c-.204-.234-.38-.438-.526-.609.146-.171.322-.375.526-.609a88.796 88.796 0 013.054-3.304 105.182 105.182 0 0111.25-10.044C96.653 101.222 109.688 94 124 94c14.312 0 27.346 7.222 36.867 14.543a105.133 105.133 0 0111.25 10.044 88.785 88.785 0 013.054 3.304c.204.234.38.438.526.609z" stroke="#fff" stroke-width="2"/><circle cx="123.5" cy="123.5" r="16.5" stroke="#fff" stroke-width="2"/><circle cx="664.5" cy="104.5" r="43.5" stroke="#fff" stroke-width="2"/><circle cx="664.5" cy="104.5" r="35.5" stroke="#fff" stroke-width="2"/><circle cx="664.5" cy="104.5" r="27.5" stroke="#fff" stroke-width="2"/><circle cx="664.5" cy="104.5" r="19.5" stroke="#fff" stroke-width="2"/><circle cx="664.5" cy="104.5" r="12.5" stroke="#fff" stroke-width="2"/><circle cx="664.5" cy="104.5" r="4.5" stroke="#fff" stroke-width="2"/></svg>