<svg width="671" height="182" fill="none" xmlns="http://www.w3.org/2000/svg"><g clip-path="url(#clip0)"><g filter="url(#filter0_d)"><path fill="#2E2E2E" d="M0 0h671v182H0z"/></g><g clip-path="url(#clip1)" stroke-width="2" stroke-linecap="round" stroke-linejoin="round"><path d="M617.612-7.782l-39.251-10.517a10.16 10.16 0 00-12.442 7.183l-21.035 78.502a10.161 10.161 0 007.183 12.442l58.877 15.776a10.16 10.16 0 0012.442-7.183l15.776-58.877-21.55-37.326z" stroke="#686868"/><path d="M617.611-7.782l-7.888 29.438 29.439 7.888" stroke="#686868"/><path d="M612.963 48.817L573.712 38.3M607.705 68.443l-39.251-10.517M588.783 21.304l-4.906-1.315-4.906-1.314" stroke="#fff"/></g><g clip-path="url(#clip2)" stroke-width="2" stroke-linecap="round" stroke-linejoin="round"><path d="M307.928-18.463l-49.431-13.245a12.793 12.793 0 00-15.669 9.046L216.338 76.2a12.793 12.793 0 009.046 15.669l74.147 19.867a12.79 12.79 0 0015.669-9.046l19.867-74.147-27.139-47.006z" stroke="#686868"/><path d="M307.928-18.463l-9.934 37.073 37.073 9.934" stroke="#686868"/><path d="M302.074 52.815L252.643 39.57M295.452 77.53l-49.431-13.244M271.623 18.166l-6.179-1.655-6.179-1.656" stroke="#fff"/></g><g clip-path="url(#clip3)" stroke-width="2" stroke-linecap="round" stroke-linejoin="round"><path d="M522.482 108.183l-31.086 8.329a8.048 8.048 0 00-5.689 9.854l16.659 62.171a8.045 8.045 0 009.854 5.689l46.628-12.494a8.045 8.045 0 005.689-9.854l-12.494-46.628-29.561-17.067z" stroke="#686868"/><path d="M522.482 108.183l6.247 23.314 23.314-6.247" stroke="#686868"/><path d="M541.706 148.843l-31.085 8.329M545.871 164.386l-31.086 8.329M514.227 139.547l-3.885 1.042-3.886 1.041" stroke="#fff"/></g><g clip-path="url(#clip4)" stroke-width="2" stroke-linecap="round" stroke-linejoin="round"><path d="M161.625 60.032l-48.424-27.958a13.978 13.978 0 00-19.095 5.117L38.19 134.039a13.977 13.977 0 005.116 19.095l72.636 41.936a13.981 13.981 0 0019.096-5.116l41.936-72.636-15.35-57.286z" stroke="#686868"/><path d="M161.625 60.032L140.657 96.35l36.318 20.968" stroke="#686868"/><path d="M135.289 133.604l-48.424-27.958M121.311 157.816l-48.424-27.957M112.95 88.424l-6.053-3.495-6.053-3.494" stroke="#fff"/></g><g clip-path="url(#clip5)"><path d="M440.628 74.522l-47.226-27.266a13.634 13.634 0 00-18.623 4.99L320.247 146.7a13.631 13.631 0 004.99 18.623l70.839 40.899a13.631 13.631 0 0018.623-4.99l40.899-70.84-14.97-55.869z" stroke="#fff" stroke-width="2" stroke-linecap="round" stroke-linejoin="round"/><path d="M385.5 172c15.74 0 28.5-12.76 28.5-28.5S401.24 115 385.5 115 357 127.76 357 143.5s12.76 28.5 28.5 28.5z" fill="#BD082A"/><path d="M440.628 74.522l-20.45 35.42 35.42 20.449M377.795 156.219l13.782-23.871M372.75 137.392l23.871 13.783" stroke="#fff" stroke-width="2" stroke-linecap="round" stroke-linejoin="round"/></g><path d="M619 149h21M497 58h21M445 29h21M644 124h21M213 127h21M271 149h21M172 34h21M22 53h21M62 15h21M177 173h21M27 173h21" stroke="#676767"/></g><defs><clipPath id="clip0"><path fill="#fff" d="M0 0h671v182H0z"/></clipPath><clipPath id="clip1"><path fill="#fff" transform="rotate(15 412.5 2076.727)" d="M0 0h121.907v121.907H0z"/></clipPath><clipPath id="clip2"><path fill="#fff" transform="rotate(15 317.453 826.516)" d="M0 0h153.524v153.524H0z"/></clipPath><clipPath id="clip3"><path fill="#fff" transform="rotate(-15 669.71 -1712.317)" d="M0 0h96.546v96.546H0z"/></clipPath><clipPath id="clip4"><path fill="#fff" transform="rotate(30 43.802 156.008)" d="M0 0h167.746v167.746H0z"/></clipPath><clipPath id="clip5"><path fill="#fff" transform="rotate(30 154.409 688.222)" d="M0 0h163.597v163.597H0z"/></clipPath><filter id="filter0_d" x="-58" y="-58" width="787" height="298" filterUnits="userSpaceOnUse" color-interpolation-filters="sRGB"><feFlood flood-opacity="0" result="BackgroundImageFix"/><feColorMatrix in="SourceAlpha" values="0 0 0 0 0 0 0 0 0 0 0 0 0 0 0 0 0 0 127 0"/><feOffset/><feGaussianBlur stdDeviation="29"/><feColorMatrix values="0 0 0 0 0 0 0 0 0 0 0 0 0 0 0 0 0 0 0.05 0"/><feBlend in2="BackgroundImageFix" result="effect1_dropShadow"/><feBlend in="SourceGraphic" in2="effect1_dropShadow" result="shape"/></filter></defs></svg>