<svg width="671" height="182" fill="none" xmlns="http://www.w3.org/2000/svg"><g clip-path="url(#clip0)"><g filter="url(#filter0_d)"><path fill="#2E2E2E" d="M0 0h671v182H0z"/></g><path d="M65 11h21M10 117h21M146 140h21M92 166h21M197 159h21M400 63h21M315 17h21M439 32h21M607 78h21M628 32h21M644 140h21M291 147h21" stroke="#676767"/><path d="M535.5 74c15.74 0 28.5-12.76 28.5-28.5S551.24 17 535.5 17 507 29.76 507 45.5 519.76 74 535.5 74z" fill="#BD082A"/><path d="M535.5 28.4v17.1l11.4 5.7" stroke="#fff" stroke-width="2" stroke-linecap="round" stroke-linejoin="round"/><path d="M378 159.087a10.512 10.512 0 0010.514 10.514h215.457L625 190.63v-84.116A10.513 10.513 0 00614.486 96H388.514A10.512 10.512 0 00378 106.514v52.573z" stroke="#686868" stroke-width="2" stroke-linecap="round" stroke-linejoin="round"/><path stroke="#fff" stroke-width="2" d="M399.653 113.445h202.091M399.653 126.276h202.091M399.653 139.107h202.091M399.653 151.938h120.292"/><path d="M355 110.667a13.111 13.111 0 01-13.111 13.111H73.222L47 150V45.111A13.11 13.11 0 0160.111 32H341.89A13.112 13.112 0 01355 45.111v65.556z" stroke="#686868" stroke-width="2" stroke-linecap="round" stroke-linejoin="round"/><path stroke="#fff" stroke-width="2" d="M328 54H76M328 70H76M328 86H76M175 103H76"/></g><defs><clipPath id="clip0"><path fill="#fff" d="M0 0h671v182H0z"/></clipPath><filter id="filter0_d" x="-58" y="-58" width="787" height="298" filterUnits="userSpaceOnUse" color-interpolation-filters="sRGB"><feFlood flood-opacity="0" result="BackgroundImageFix"/><feColorMatrix in="SourceAlpha" values="0 0 0 0 0 0 0 0 0 0 0 0 0 0 0 0 0 0 127 0"/><feOffset/><feGaussianBlur stdDeviation="29"/><feColorMatrix values="0 0 0 0 0 0 0 0 0 0 0 0 0 0 0 0 0 0 0.05 0"/><feBlend in2="BackgroundImageFix" result="effect1_dropShadow"/><feBlend in="SourceGraphic" in2="effect1_dropShadow" result="shape"/></filter></defs></svg>