<svg width="671" height="463" fill="none" xmlns="http://www.w3.org/2000/svg"><path fill-rule="evenodd" clip-rule="evenodd" d="M314.702 155.563c.15-2.236.793-23.096 1.93-62.582.285-9.883-6.257-18.551-15.509-20.551l-.931-.202c-11.168-.817-21.108 7.362-22.984 18.912l-9.575 58.962" fill="#fff"/><path d="M300.3 72.682l.9.195c9.036 1.953 15.425 10.418 15.147 20.07-1.137 39.458-1.781 60.337-1.929 62.562a.47.47 0 00.423.509.462.462 0 00.486-.442c.15-2.246.793-23.088 1.931-62.6.292-10.115-6.403-18.987-15.873-21.034l-.931-.201-.06-.009c-11.402-.834-21.55 7.516-23.465 19.308l-9.575 58.962a.476.476 0 00.373.55.459.459 0 00.526-.39l9.575-58.962c1.835-11.298 11.55-19.301 22.472-18.518z" fill="#438AF5"/><path fill-rule="evenodd" clip-rule="evenodd" d="M322.129 150.373l4.892-39.802c.471-3.832-2.116-7.337-5.777-7.83a6.411 6.411 0 00-.853-.058c-4.533 0-8.552 3.051-9.959 7.56L297.897 150.4l24.232-.027z" fill="#fff"/><path d="M322.522 150.559a.465.465 0 00.452-.417l4.892-39.802c.503-4.093-2.26-7.838-6.172-8.364a6.764 6.764 0 00-.91-.061c-4.731 0-8.924 3.183-10.393 7.888l-12.535 40.157c-.097.309.123.625.434.625l24.232-.026zm-.402-.954l-23.202.025 12.34-39.53c1.346-4.313 5.19-7.231 9.526-7.231.265 0 .531.018.794.053 3.412.459 5.822 3.726 5.383 7.297l-4.841 39.386z" fill="#438AF5"/><path fill-rule="evenodd" clip-rule="evenodd" d="M201.537 248.059l46.431-15.838c5.262-1.796 9.101-6.552 9.911-12.282l9.925-70.175h53.804l-9.52 89.164c-1.677 15.705-9.761 29.885-22.172 38.89l-52.814 38.316-35.565-68.075z" fill="#DCEEFF"/><path fill-rule="evenodd" clip-rule="evenodd" d="M313.096 230.881c-10.741 6.15-18.543 13.149-23.406 20.995-4.864 7.847-9.018 19.617-12.463 35.31a641.853 641.853 0 017.599-5.726c8.564-6.333 15.146-12.094 19.15-18.768 5.472-9.119 8.512-19.723 9.12-31.811z" fill="#528BF6"/><path d="M254.654 226.804l.012-.018a15.139 15.139 0 002.857-6.957l9.915-70.109a.463.463 0 01.451-.407h53.804c.272 0 .484.247.453.53l-4.134 38.724a.49.49 0 01-.072.67l-5.308 49.715c-1.695 15.875-9.879 30.203-22.437 39.282l-52.53 37.975a.44.44 0 01-.551-.026c-7.229-6.31-13.245-14.313-18.048-24.005-4.79-9.668-10.169-24.643-16.141-44.933a.482.482 0 01.297-.595l44.614-14.894c2.749-.918 5.102-2.668 6.818-4.952zm-36.449 15.846l-14.276 4.766c5.905 20.01 11.222 34.787 15.947 44.322 4.689 9.464 10.541 17.289 17.556 23.479l13.387-9.678-32.614-62.889zm.884-.295l32.485 62.639 38.102-27.545c12.342-8.922 20.384-23.002 22.05-38.603l5.292-49.562-53.511-5.034-.03-.004-5.052 35.723a16.129 16.129 0 01-2.741 6.993l31.84 23.89a.492.492 0 01.104.666.442.442 0 01-.636.11l-31.869-23.912c-1.803 2.274-4.214 4.016-7.009 4.949l-29.025 9.69zm44.522-59.053l53.508 5.033 4.064-38.068h-52.9l-4.672 33.035z" fill="#438AF5"/><path fill-rule="evenodd" clip-rule="evenodd" d="M117.942 257.921l-42.556 23.221 12.073 23.196 36.563-25.767-6.08-20.65z" fill="#528BF6"/><path fill-rule="evenodd" clip-rule="evenodd" d="M400.033 363.214l-8.816-75.073 4.56-2.227 18.847-29.266 3.343-.954c1.21-.303 2.122-.303 2.736 0 .614.302 1.425 1.15 2.432 2.545v89.07c-.669 1.684-1.277 2.851-1.824 3.499-.547.649-1.459 1.285-2.736 1.909l-18.542 10.497zm-81.162 66.167l57.756-22.268 2.735 8.271 37.693 10.18 1.52 2.863c-.343 2.103-.748 3.587-1.216 4.453-.467.866-1.379 1.82-2.735 2.863l-78.73 19.405c-1.629.17-2.946-.042-3.952-.636-1.006-.595-2.019-1.762-3.04-3.5l-10.031-21.631z" fill="#fff"/><path d="M117.514 257.524l-42.557 23.222a.488.488 0 00-.19.651l12.074 23.196a.446.446 0 00.655.167l36.563-25.767a.488.488 0 00.181-.536l-6.08-20.651a.45.45 0 00-.646-.282zm5.755 20.876l-35.867 25.276-11.612-22.309 41.66-22.732 5.819 19.765z" fill="#438AF5"/><path fill-rule="evenodd" clip-rule="evenodd" d="M248.349 336.811v.981l-41.645-84.325-58.972 26.085c1.1 37.661 6.137 62.685 15.113 75.074 8.976 12.388 24.913 16.311 47.81 11.77h33.134l4.56-29.585z" fill="#DCEEFF"/><path d="M248.891 336.811v.981a.466.466 0 01-.207.401l-4.359 28.278a.462.462 0 01-.45.402h-33.09c-23.029 4.558-39.125.59-48.217-11.959-9.05-12.49-14.103-37.594-15.206-75.348a.481.481 0 01.279-.454l58.972-26.085a.446.446 0 01.582.221l41.052 83.124a.458.458 0 01.644.439zm-.118.798l.021-.13-.069-.139a.5.5 0 01.048.269zm-42.194-83.531l-58.295 25.786c1.116 37.386 6.134 62.222 15.011 74.473 8.854 12.22 24.617 16.101 47.362 11.59l.085-.009h32.745l4.358-28.28-41.266-83.56z" fill="#438AF5"/><path fill-rule="evenodd" clip-rule="evenodd" d="M237.406 316.134l3.039 6.044c-9.34 7.711-16.737 13.119-22.19 16.224-5.453 3.105-11.431 5.968-17.934 8.589l-3.648-6.68a164.414 164.414 0 0017.023-8.907c5.42-3.26 13.323-8.349 23.71-15.27zM255.341 445.604l144.085-81.753-7.904-75.392-142.869 73.483" fill="#528BF6"/><path d="M237.151 315.421c-10.688 7.538-18.987 13.046-24.895 16.521-5.896 3.468-11.443 6.107-16.639 7.916a.482.482 0 00-.289.603c.08.25.338.386.577.302 5.254-1.829 10.853-4.492 16.798-7.989 5.933-3.49 14.251-9.01 24.957-16.562a.491.491 0 00.124-.662.443.443 0 00-.633-.129zM240.388 321.798c-9.922 7.874-18.588 13.905-25.997 18.093-7.376 4.169-12.405 6.379-15.023 6.625a.471.471 0 00-.413.517.462.462 0 00.495.433c2.785-.261 7.888-2.504 15.375-6.736 7.454-4.213 16.158-10.27 26.114-18.171a.493.493 0 00.088-.669.443.443 0 00-.639-.092zM399.089 363.419a.451.451 0 01-.031-.129l-7.901-74.412-142.521 73.492a.446.446 0 01-.61-.217.487.487 0 01.207-.639l146.712-75.654 18.768-28.955c.661-1.019 1.767-1.622 2.943-1.605.417.006.816.089 1.185.235a1.347 1.347 0 01.837-.562c.274-.057.552-.086.832-.087 2.36-.004 4.277 1.996 4.28 4.466l.128 85.447c.006 3.674-1.744 7.29-5.104 8.178l-.001.065a.481.481 0 01-.238.413l-163.236 92.569a.445.445 0 01-.618-.192.488.488 0 01.184-.647l144.184-81.766zm.849-.481l17.967-10.189 1.285-93.752c.02-1.493-1.12-2.721-2.547-2.742a2.552 2.552 0 00-2.175 1.185l-18.836 29.06a.448.448 0 01-.175.16l-3.517 1.814a.489.489 0 01.121.273l7.877 74.191zm18.842-106.845a3.718 3.718 0 011.322 2.918l-1.274 92.972c2.797-.888 4.183-4.035 4.178-7.183l-.127-85.446c-.003-1.944-1.511-3.516-3.368-3.513-.22 0-.439.023-.654.068-.027.07-.053.131-.077.184z" fill="#438AF5"/><path fill-rule="evenodd" clip-rule="evenodd" d="M140.437 352.104l4.645 26.403 34.65 64.002c9.117 16.84 28.55 24.288 45.904 17.592l12.144-4.685c11.684-4.508 21.763-12.662 28.875-23.359l31.387-47.211 20.829 44.535 57.755-22.268-40.602-100.489c-4.449-11.01-14.763-18.165-26.187-18.165-12.07 0-23.648 5.004-32.2 13.917l-54.433 56.726" fill="#DCEEFF"/><path fill-rule="evenodd" clip-rule="evenodd" d="M275.403 304.682c9.728 7.847 19.86 13.467 30.398 16.86 10.538 3.393 22.19 2.651 34.957-2.227-2.849-9.88-5.991-16.772-9.423-20.677-4.089-4.652-11.714-8.793-16.111-9.861-5.769-1.402-16.423.22-24.926 4.453-4.09 2.037-9.055 5.854-14.895 11.452z" fill="#528BF6"/><path d="M418.43 427.401l.164-.042.007.029c.947 4.11-1.469 8.245-5.396 9.235l-75.937 19.158c-3.426.864-6.969-.787-8.655-4.002a.46.46 0 01-.339-.264l-30.302-65.749-30.942 46.54c-7.165 10.778-17.32 18.993-29.091 23.534l-12.144 4.686c-17.564 6.776-37.232-.761-46.459-17.805l-34.65-64.002a.487.487 0 01-.051-.149l-4.646-26.403a.476.476 0 01.366-.556.459.459 0 01.531.383l4.632 26.324 34.612 63.933c9.007 16.636 28.205 23.994 45.349 17.38l12.145-4.686c11.596-4.474 21.599-12.567 28.658-23.184l31.387-47.211a.447.447 0 01.785.065l20.4 44.264 57.104-22.016-34.269-84.96c-20.278 10.345-42.945 5.383-67.944-14.82l-50.218 52.334a.443.443 0 01-.645-.001.493.493 0 01.001-.675l54.433-56.726c8.638-9.002 20.332-14.056 32.522-14.056 11.606 0 22.083 7.273 26.596 18.462l40.459 100.305a.467.467 0 01.162.222.51.51 0 01.023.237l3.007 7.454 35.711 9.435c1.277.337 2.264 1.396 2.554 2.74.043.196.069.392.08.587zm-.548 2.196a3.491 3.491 0 01-2.17 1.592l-86.151 20.4c1.541 2.661 4.565 4.003 7.494 3.264l75.936-19.157c2.8-.707 4.723-3.239 4.891-6.099zm-98.63.146l9.686 21.015 86.573-20.5c1.392-.329 2.265-1.777 1.95-3.234-.215-.993-.945-1.775-1.888-2.025l-35.932-9.493a.462.462 0 01-.308-.277l-3.02-7.486-57.061 22zm22.082-108.72l-5.74-14.231c-4.371-10.836-14.517-17.879-25.756-17.879-11.949 0-23.412 4.954-31.879 13.778l-3.562 3.713c24.727 19.95 47.021 24.802 66.937 14.619z" fill="#438AF5"/><path fill-rule="evenodd" clip-rule="evenodd" d="M170.227 247.105L56.529 323.09c-25.862 17.284-35.361 52.027-22.15 81.011l8.153 17.889c14.456 31.714 50.741 45.16 81.047 30.032a60.164 60.164 0 004.745-2.644l52.013-32.152c9.687-5.988 17.596-14.671 22.847-25.083l.632-1.253c5.442-10.79 5.612-23.657.458-34.6l-12.769-27.113c-18.953 14.788-29.187 24.967-30.702 30.538-1.35 4.968-16.804 15.202-46.362 30.702-6.411 3.362-14.214 1.006-17.928-5.412-2.984-5.156-1.41-11.866 3.517-14.989a10.262 10.262 0 011.775-.897l55.351-21.492" fill="#DCEEFF"/><path fill-rule="evenodd" clip-rule="evenodd" d="M32.83 401.069c1.519 4.454 8.119 18.396 10.638 22.904 2.651 4.743 5.472 9.225 9.12 13.679 3.612 4.41 8.472 8.77 15.806 12.724a384.092 384.092 0 007.904 4.136c-1.894-16.719-4.021-28.383-6.384-34.992-1.915-5.358-3.863-10.729-6.687-14.951-7.093-10.604-18.557-21.322-34.392-32.155-1.39 7.228-.059 16.779 3.994 28.655z" fill="#528BF6"/><path fill-rule="evenodd" clip-rule="evenodd" d="M162.931 353.671l.608 8.271c7.314 14.489 11.812 23.237 13.491 26.242 1.768 3.162 5.275 10.956 10.523 23.383 5.881-5.331 10.542-10.844 13.983-16.542 3.441-5.697 5.569-11.423 6.383-17.178.811-7.634-1.216-16.223-6.079-25.766-2.426-4.761-5.972-12.713-10.639-23.859-13.228 7.331-22.449 13.375-27.662 18.133-5.213 4.757-5.416 7.196-.608 7.316z" fill="#fff"/><path d="M203.647 356.209c5.09 10.807 4.922 23.511-.452 34.166l-.632 1.253c-5.212 10.334-13.061 18.952-22.675 24.895l-52.2 32.267a59.047 59.047 0 01-4.533 2.536c-30.031 15.117-66.086 1.894-80.53-29.534l-7.852-17.082c-13.127-28.561-3.99-62.88 21.358-80.223l112.521-76.983a.49.49 0 00.132-.66.444.444 0 00-.631-.139L55.632 323.689c-25.731 17.604-35.006 52.442-21.681 81.434l7.851 17.083c14.663 31.902 51.263 45.325 81.748 29.98a60.313 60.313 0 004.602-2.574l52.199-32.267c9.76-6.033 17.728-14.781 23.018-25.271l.632-1.253c5.51-10.926 5.683-23.953.464-35.034l-12.769-27.113a.447.447 0 00-.595-.224c-15.119 7.093-24.395 12.402-27.881 15.973-1.593 1.633-2.477 3.697-2.839 6.199-.225 1.56-.242 2.908-.15 5.318.081 2.118.075 2.768-.084 3.353-1.295 4.762-16.768 15.009-46.128 30.406-6.199 3.25-13.743.973-17.335-5.233-2.809-4.854-1.326-11.172 3.313-14.112a9.615 9.615 0 011.805-.895l57.634-21.382a.483.483 0 00.277-.609.45.45 0 00-.582-.291l-57.634 21.382a10.5 10.5 0 00-1.973.979c-5.069 3.213-6.69 10.118-3.62 15.422 3.838 6.632 11.9 9.065 18.523 5.592 29.756-15.604 45.191-25.825 46.597-30.998.198-.73.205-1.393.119-3.652-.09-2.353-.075-3.655.14-5.137.334-2.312 1.136-4.186 2.575-5.66 3.349-3.431 12.437-8.645 27.215-15.596l12.574 26.7z" fill="#438AF5"/><path fill-rule="evenodd" clip-rule="evenodd" d="M206.789 253.402c-10.622-24.694-17.005-41.1-19.151-49.216-6.953-26.309-11.806-49.258-37.779-49.258-25.974 0-47.03 22.036-47.03 49.217 0 7.743 6.384 32.569 19.151 74.478 18.829-.079 34.062-1.06 45.7-2.943 11.638-1.884 24.674-9.31 39.109-22.278z" fill="#DCEEFF" stroke="#438AF5" stroke-width=".843" stroke-linecap="round" stroke-linejoin="round"/><path fill-rule="evenodd" clip-rule="evenodd" d="M206.704 253.327c-10.622-24.695-17.005-41.101-19.15-49.217-6.954-26.309-11.807-49.257-37.78-49.257-25.974 0-47.03 22.035-47.03 49.216 0 7.743 6.384 32.569 19.151 74.478 18.829-.079 34.062-1.06 45.7-2.943 11.638-1.884 24.674-9.309 39.109-22.277z" fill="#DCEEFF"/><path clip-rule="evenodd" d="M206.704 253.327c-10.622-24.695-17.005-41.101-19.15-49.217-6.954-26.309-11.807-49.257-37.78-49.257-25.974 0-47.03 22.035-47.03 49.216 0 7.743 6.384 32.569 19.151 74.478 18.829-.079 34.062-1.06 45.7-2.943 11.638-1.884 24.674-9.309 39.109-22.277z" stroke="#438AF5" stroke-width=".843" stroke-linecap="round" stroke-linejoin="round"/><path d="M207.12 253.131c-10.612-24.671-16.99-41.063-19.127-49.147-.28-1.059-1.519-5.784-1.853-7.044-4.092-15.451-6.923-23.341-11.481-29.97-5.756-8.371-13.629-12.594-24.885-12.594-26.226 0-47.486 22.249-47.486 49.694 0 7.817 6.384 32.645 19.172 74.623a.46.46 0 00.436.332c18.85-.079 34.105-1.061 45.769-2.949 11.734-1.899 24.842-9.366 39.336-22.387a.493.493 0 00.119-.558zm-39.594 22.002c-11.544 1.868-26.644 2.847-45.299 2.936-12.678-41.638-19.027-66.351-19.027-73.999 0-26.918 20.852-48.74 46.574-48.74 10.962 0 18.561 4.076 24.145 12.198 4.474 6.507 7.279 14.324 11.342 29.667.334 1.259 1.573 5.983 1.853 7.043 2.144 8.112 8.486 24.423 19.034 48.959-14.272 12.772-27.15 20.079-38.622 21.936z" fill="#438AF5"/><path d="M127.776 226.719s25.394 10.435 63.979-3.755c.662-.244 1.39-.68 2.183-1.308-1.996-4.177-3.211-7.04-3.648-8.589-1.778-6.307-1.943-10.312-3.952-14.315-1.298-2.587-1.753-7.001-3.04-11.134-.694-2.229-2.011-5.728-3.951-10.497-1.928-4.005-3.246-6.656-3.952-7.953-1.082-1.986-1.083-3.925-2.494-3.71-7.625 1.161-15.849 6.337-24.67 15.528-20.499 21.357-20.455 45.733-20.455 45.733z" fill="#438AF5"/><path fill-rule="evenodd" clip-rule="evenodd" d="M144.085 185.71c2.128-2.545 3.305-4.139 5.168-6.044 1.862-1.906 4.255-4.136 8.511-7.317 2.229 6.15 4.458 12.831 7.295 21.95 4.256 13.678-2.482 15.835-10.639 6.68-5.437-6.103-8.68-10.981-10.335-15.269zm24.111-.791c1.516.111 2.342 6.996 2.806 8.178.258.658-.043 1.411-.673 1.682-.575.247-1.235.006-1.54-.56-1.777-3.3-2.658-5.281-2.645-5.942.032-1.673.536-3.469 2.052-3.358z" fill="#fff"/><path d="M159.674 346.355c20.481 0 37.085-17.376 37.085-38.81 0-21.433-16.604-38.809-37.085-38.809-20.482 0-37.085 17.376-37.085 38.809 0 21.434 16.603 38.81 37.085 38.81zM128.201 223.46c-3.206-14.888 1.502-29.042 14.167-42.505 12.666-13.466 21.616-19.991 26.694-19.582.251.02-.071.105-.052-.157.02-.263-.052-.298-.304-.319-.145-.011.132-.494-.018-.495-5.503-.062-14.446 6.568-26.97 19.883-12.87 13.682-17.686 28.158-14.407 43.385a.455.455 0 00.545.36.478.478 0 00.345-.57z" fill="#438AF5"/><path fill-rule="evenodd" clip-rule="evenodd" d="M135.659 337.766l13.679-36.606 34.307-10.406c1.29-.392 2.639.386 3.013 1.735.225.813.05 1.69-.468 2.339l-19.525 24.487-1.606 27.04-29.4-8.589z" fill="#fff"/><path fill-rule="evenodd" clip-rule="evenodd" d="M149.262 301.183c-4.667 5.335-7.634 8.842-8.902 10.521-6.655 8.815-6.41 12.147-3.257 14.292 6.079 4.135 12.376 12.429 16.632 4.794 2.837-5.089 1.346-14.958-4.473-29.607z" fill="#DCEEFF"/><path d="M149.003 300.838a.446.446 0 01.757.139c5.872 14.78 7.381 24.767 4.446 30.031-1.673 3.002-3.804 3.905-6.416 3.035-1.886-.628-3.315-1.649-7.108-4.77a93.047 93.047 0 00-2.011-1.623 33.744 33.744 0 00-1.74-1.277c-3.821-2.6-3.124-6.679 3.149-14.988 1.277-1.691 4.248-5.203 8.923-10.547zm4.416 29.689c2.696-4.837 1.312-14.356-4.228-28.491-4.38 5.016-7.182 8.332-8.396 9.941-5.985 7.927-6.58 11.41-3.367 13.596.559.38 1.142.809 1.787 1.311.579.452 1.116.886 2.03 1.638 3.691 3.037 5.085 4.033 6.822 4.612 2.198.732 3.89.015 5.352-2.607zm14.306-12.438a.443.443 0 01.634-.12c.207.15.258.448.115.664-1.766 2.662-3.392 4.023-4.934 4.023a.467.467 0 01-.456-.478c0-.263.204-.477.456-.477 1.159 0 2.574-1.184 4.185-3.612z" fill="#438AF5"/><path d="M126.149 232.472c2.519 0 4.56-2.136 4.56-4.772 0-2.635-2.041-4.771-4.56-4.771-2.518 0-4.559 2.136-4.559 4.771 0 2.636 2.041 4.772 4.559 4.772z" fill="#fff"/><path d="M125.933 232.949c2.77 0 5.015-2.35 5.015-5.249 0-2.899-2.245-5.249-5.015-5.249-2.77 0-5.016 2.35-5.016 5.249 0 2.899 2.246 5.249 5.016 5.249zm0-.954c-2.267 0-4.104-1.923-4.104-4.295s1.837-4.294 4.104-4.294c2.266 0 4.103 1.922 4.103 4.294s-1.837 4.295-4.103 4.295z" fill="#438AF5"/><path d="M125.933 230.404c1.582 0 2.887-1.195 2.887-2.704 0-1.508-1.305-2.704-2.887-2.704-1.583 0-2.888 1.196-2.888 2.704 0 1.509 1.305 2.704 2.888 2.704zm0-.954c-1.104 0-1.976-.799-1.976-1.75s.872-1.749 1.976-1.749c1.103 0 1.976.798 1.976 1.749 0 .951-.873 1.75-1.976 1.75z" fill="#438AF5"/><path fill-rule="evenodd" clip-rule="evenodd" d="M165.059 344.128l-1.737 17.814-25.838 15.905-20.453 11.134L107 374.984c8.387-.508 13.15-1.887 14.287-4.135 3.366-6.655 8.128-17.576 14.287-32.765l29.485 6.044z" fill="#fff"/><path d="M165.147 343.342c.231.047.39.271.366.516l-1.738 17.814a.479.479 0 01-.223.363l-25.858 15.918-20.453 11.133a.442.442 0 01-.575-.137l-10.031-13.996c-.218-.305-.025-.741.338-.763 8.218-.498 12.882-1.848 13.911-3.882 3.358-6.64 8.116-17.552 14.27-32.729a.45.45 0 01.507-.281l29.486 6.044zm-29.298-5.034c-6.094 15.015-10.812 25.829-14.16 32.446-1.204 2.381-5.785 3.775-13.817 4.334l9.292 12.965 20.088-10.935 25.639-15.783 1.672-17.141-28.714-5.886zm27.241 22.905l-.222.362.023-.24.199-.122z" fill="#438AF5"/><path fill-rule="evenodd" clip-rule="evenodd" d="M54.107 214.021c-3.022 0-5.471-2.563-5.471-5.725 0-3.163 2.45-5.726 5.471-5.726 3.022 0 5.472 2.563 5.472 5.726 0 3.162-2.45 5.725-5.472 5.725zm53.5 14.315l1.434 5.726c-.344.122-.685.255-1.021.397-9.612 4.072-14.25 15.527-10.36 25.586l2.87 7.419-5.472 3.181-3.237-11.028c-3.491-11.895 1.977-24.657 12.786-29.842l3-1.439z" fill="#fff"/><path d="M66.718 235.087a.497.497 0 00-.045-.286l-10.335-21.314a.447.447 0 00-.613-.209.487.487 0 00-.2.641l10.27 21.178-1.195 8.439a.482.482 0 00.275.51l8.337 3.651L86.84 274.2c.119.232.395.318.617.194a.49.49 0 00.186-.647l-13.705-26.651a.464.464 0 00-.225-.214l-8.16-3.573 1.165-8.222z" fill="#438AF5"/><path d="M53.89 214.499c-3.273 0-5.927-2.778-5.927-6.203 0-3.426 2.654-6.204 5.927-6.204 3.274 0 5.928 2.778 5.928 6.204 0 3.425-2.654 6.203-5.928 6.203zm0-.955c2.77 0 5.016-2.35 5.016-5.248 0-2.899-2.245-5.249-5.016-5.249-2.77 0-5.015 2.35-5.015 5.249 0 2.898 2.245 5.248 5.015 5.248zm53.31 14.359a.451.451 0 01.631.312l1.434 5.726a.48.48 0 01-.295.573 17.23 17.23 0 00-.996.388c-9.379 3.972-13.904 15.149-10.108 24.964l2.869 7.419a.487.487 0 01-.201.596l-5.471 3.181a.45.45 0 01-.658-.277l-3.237-11.028c-3.558-12.124 2.015-25.131 13.032-30.415l3-1.439zm-2.62 2.306c-10.601 5.085-15.964 17.602-12.54 29.268l3.072 10.465 4.627-2.69-2.718-7.028c-3.986-10.303.765-22.037 10.611-26.207.213-.09.428-.177.644-.259l-1.189-4.751-2.507 1.202zM65.465 401.28c7.962 11.36 13.035 29.511 15.239 54.46l-.909.088c-2.222-25.156-7.367-43.315-15.412-54.471-6.577-9.119-13.638-16.63-20.909-22.685-5.336-4.445-10.33-7.739-14.703-10.036l.409-.853c4.428 2.326 9.475 5.655 14.862 10.142 7.256 6.043 14.303 13.522 20.87 22.583l30.623-17.354a.445.445 0 01.618.192.489.489 0 01-.184.647L65.465 401.28zm43.5-9.022a.488.488 0 01.182-.647.445.445 0 01.618.19l27.12 51.984a.489.489 0 01-.181.648.446.446 0 01-.619-.19l-27.12-51.985zm-9.95-21.937a.487.487 0 01-.209.638.447.447 0 01-.61-.218l-26.867-57.259a.488.488 0 01.208-.639.447.447 0 01.61.218l26.867 57.26z" fill="#438AF5"/><path d="M122.198 278.916l13.461 28.629M163.474 361.783l24.08 49.563" stroke="#438AF5" stroke-width=".843" stroke-linecap="round" stroke-linejoin="round"/><path d="M543.69 134.989a.454.454 0 01.562.33.48.48 0 01-.315.589l-38.692 11.406c-9.453 2.786-14.957 13.065-12.294 22.958a18.937 18.937 0 003.063 6.357l5.674 7.657c5.5 7.424 4.209 18.108-2.885 23.864-3.185 2.585-7.175 3.838-11.193 3.518l-19.511-1.555c-9.904-.789-19.575 3.411-26.035 11.308l-9.463 11.569a.443.443 0 01-.643.052.492.492 0 01-.05-.673l9.463-11.569c6.649-8.128 16.603-12.451 26.798-11.638l19.51 1.555c3.793.302 7.559-.882 10.565-3.321 6.696-5.433 7.915-15.518 2.723-22.525l-5.674-7.657a19.926 19.926 0 01-3.22-6.684c-2.8-10.4 2.987-21.205 12.925-24.135l38.692-11.406zM476.635 273.19v-8.271c0-.351.272-.636.608-.636.335 0 .608.285.608.636v8.271h7.903c.336 0 .608.285.608.636a.622.622 0 01-.608.636h-7.903v8.271c0 .351-.273.636-.608.636a.622.622 0 01-.608-.636v-8.271h-7.904c-.335 0-.608-.285-.608-.636 0-.351.273-.636.608-.636h7.904zM192.113 69.6v-8.27c0-.352.272-.637.608-.637.336 0 .608.285.608.636V69.6h7.903c.336 0 .608.285.608.636a.623.623 0 01-.608.637h-7.903v8.27a.622.622 0 01-.608.637.622.622 0 01-.608-.636v-8.271h-7.903a.623.623 0 01-.608-.637c0-.35.272-.636.608-.636h7.903zm257.772 36.901V98.23c0-.351.272-.636.608-.636.335 0 .608.285.608.636v8.271h7.903c.336 0 .608.285.608.636a.622.622 0 01-.608.636h-7.903v8.271c0 .351-.273.636-.608.636a.622.622 0 01-.608-.636v-8.271h-7.904c-.335 0-.608-.285-.608-.636 0-.351.273-.636.608-.636h7.904zM6.687 273.19v-6.362c0-.352.273-.637.608-.637.336 0 .608.285.608.637v6.362h6.08c.336 0 .608.285.608.636a.623.623 0 01-.608.636h-6.08v6.362c0 .352-.272.637-.608.637-.335 0-.608-.285-.608-.637v-6.362H.608a.623.623 0 01-.608-.636c0-.351.272-.636.608-.636h6.08zm372.979-92.252v-6.044c0-.351.272-.636.608-.636.336 0 .608.285.608.636v6.044h5.776c.335 0 .608.285.608.636 0 .352-.273.637-.608.637h-5.776v6.044a.622.622 0 01-.608.636.622.622 0 01-.608-.636v-6.044h-5.775c-.336 0-.608-.285-.608-.637 0-.351.272-.636.608-.636h5.775zm-154.42-18.768v-6.044c0-.352.273-.636.608-.636.336 0 .608.284.608.636v6.044h5.776c.336 0 .608.285.608.636a.622.622 0 01-.608.636h-5.776v6.044c0 .352-.272.637-.608.637-.335 0-.608-.285-.608-.637v-6.044h-5.775a.622.622 0 01-.608-.636c0-.351.272-.636.608-.636h5.775z" fill="#438AF5"/><path fill-rule="evenodd" clip-rule="evenodd" d="M165.465 300.854c-2.953-2.216-5.369-2.769-7.248-1.662-2.819 1.662-6.443 4.984-4.43 9.138 2.014 4.154 3.624 7.476 5.638 7.476 2.013 0 5.637.416 7.651-4.153 1.342-3.046.805-6.646-1.611-10.799z" fill="#DCEEFF"/><path fill-rule="evenodd" clip-rule="evenodd" d="M165.3 302.764c-.208 2.253-.925 3.705-2.151 4.355-1.071.569-2.748.9-5.029.994-1.007.041-1.854-.779-1.894-1.832a1.975 1.975 0 01.244-1.031c1.254-2.268 2.366-3.66 3.336-4.175 1.017-.54 2.345-.666 3.982-.377.944.167 1.604 1.069 1.512 2.066z" fill="#fff"/><path d="M164.544 303.518c-.306.503-.913.846-1.613.846-1.007 0-1.823-.712-1.823-1.59 0-.858.778-1.557 1.752-1.59-1.254-.14-2.275.005-3.066.425-.87.461-1.934 1.794-3.147 3.988a1.48 1.48 0 00-.183.773c.029.79.665 1.405 1.42 1.374 2.222-.091 3.84-.411 4.841-.942.943-.501 1.556-1.581 1.819-3.284zm-.857-2.192c.152.051.291.128.413.226a1.915 1.915 0 00-.413-.226zm1.849 1.592c-.222 2.4-1.011 3.999-2.398 4.735-1.142.606-2.877.949-5.218 1.045-1.258.052-2.318-.974-2.367-2.291a2.472 2.472 0 01.304-1.288c1.295-2.342 2.455-3.794 3.524-4.361 1.115-.592 2.539-.727 4.265-.423 1.18.209 2.006 1.336 1.89 2.583z" fill="#438AF5"/><path fill-rule="evenodd" clip-rule="evenodd" d="M184.513 290.533c-1.422-.372-2.923-.116-4.501.768a.652.652 0 00-.119 1.034c.602.566 1.332.886 2.189.963 1.134.102 2.452.102 3.951 0 .608-1.419.102-2.341-1.52-2.765z" fill="#DCEEFF"/><path d="M184.929 290.002c-1.539-.402-3.154-.127-4.828.81-.518.29-.713.965-.436 1.507.059.115.136.217.228.304.678.635 1.501.998 2.455 1.083 1.159.104 2.498.104 4.019.001a.459.459 0 00.387-.281c.731-1.706.058-2.931-1.825-3.424zm-2.504 2.753c-.759-.068-1.396-.348-1.923-.843a.162.162 0 01.03-.258c1.483-.831 2.869-1.068 4.176-.726 1.25.327 1.638.877 1.315 1.844-1.36.082-2.56.076-3.598-.017z" fill="#438AF5"/><path fill-rule="evenodd" clip-rule="evenodd" d="M562.356 106.501l-6.08 1.59 15.503 15.906 1.824-6.362" fill="#fff"/><path d="M329.206 430.335c2.518 0 4.56-2.136 4.56-4.771 0-2.636-2.042-4.772-4.56-4.772s-4.56 2.136-4.56 4.772c0 2.635 2.042 4.771 4.56 4.771z" fill="#fff"/><path d="M328.988 430.813c2.77 0 5.016-2.35 5.016-5.249 0-2.899-2.246-5.249-5.016-5.249s-5.015 2.35-5.015 5.249c0 2.899 2.245 5.249 5.015 5.249zm0-.955c-2.266 0-4.103-1.922-4.103-4.294s1.837-4.295 4.103-4.295c2.267 0 4.104 1.923 4.104 4.295s-1.837 4.294-4.104 4.294z" fill="#438AF5"/><path d="M397.904 354.626c2.519 0 4.56-2.137 4.56-4.772 0-2.635-2.041-4.772-4.56-4.772-2.518 0-4.559 2.137-4.559 4.772 0 2.635 2.041 4.772 4.559 4.772z" fill="#fff"/><path d="M397.905 355.103c2.77 0 5.016-2.35 5.016-5.249 0-2.899-2.246-5.249-5.016-5.249s-5.015 2.35-5.015 5.249c0 2.899 2.245 5.249 5.015 5.249zm0-.955c-2.266 0-4.103-1.922-4.103-4.294s1.837-4.295 4.103-4.295c2.267 0 4.104 1.923 4.104 4.295s-1.837 4.294-4.104 4.294zM328.988 428.268c1.583 0 2.888-1.196 2.888-2.704 0-1.509-1.305-2.704-2.888-2.704-1.582 0-2.887 1.195-2.887 2.704 0 1.508 1.305 2.704 2.887 2.704zm0-.955c-1.103 0-1.975-.798-1.975-1.749 0-.951.872-1.75 1.975-1.75 1.104 0 1.976.799 1.976 1.75s-.872 1.749-1.976 1.749z" fill="#438AF5"/><path d="M397.904 352.558c1.583 0 2.888-1.196 2.888-2.704 0-1.509-1.305-2.704-2.888-2.704-1.582 0-2.887 1.195-2.887 2.704 0 1.508 1.305 2.704 2.887 2.704zm0-.955c-1.103 0-1.975-.798-1.975-1.749 0-.951.872-1.75 1.975-1.75 1.104 0 1.976.799 1.976 1.75s-.872 1.749-1.976 1.749zM130.185 228.052c4.775 4.563 15.204 6.596 31.324 6.169 16.088-.426 27.512-2.988 34.287-7.714a.492.492 0 00.126-.662.443.443 0 00-.632-.132c-6.6 4.604-17.873 7.132-33.804 7.554-15.898.421-26.14-1.575-30.686-5.919a.443.443 0 00-.645.03.493.493 0 00.03.674z" fill="#438AF5"/><path fill-rule="evenodd" clip-rule="evenodd" d="M655.539 13.04c-15.099 5.436-30.49 15.08-46.171 28.931-16.175 14.287-33.623 33.902-52.342 58.842l21.037 21.261c23.306-20.72 41.428-39.652 54.368-56.796 12.549-16.627 21.29-32.987 26.222-49.079.28-.913.04-1.914-.62-2.58a2.367 2.367 0 00-2.494-.58z" fill="#DCEEFF"/><path fill-rule="evenodd" clip-rule="evenodd" d="M631.662 25.065l16.111 15.587c8.714-16.541 12.159-25.66 10.335-27.357-1.824-1.697-10.639 2.227-26.446 11.77z" fill="#528BF6"/><path fill-rule="evenodd" clip-rule="evenodd" d="M569.203 121.703l-9.583 12.155.912-9.225-7.599 1.909 3.04-6.999h-8.816l11.046-9.125-2.827-2.901 6.869-1.797.222.926-5.29 1.383 14.382 14.756 1.607-5.606.874.275-2.041 7.118-2.796-2.869z" fill="#438AF5"/><path d="M609.065 41.392c-16.201 14.31-33.669 33.948-52.406 58.913a.492.492 0 00.042.638l21.037 21.26c.169.17.434.179.612.02 23.327-20.738 41.47-39.692 54.43-56.863 12.581-16.67 21.349-33.08 26.299-49.229a3.093 3.093 0 00-.737-3.07 2.81 2.81 0 00-2.96-.686c-15.156 5.457-30.594 15.13-46.317 29.017zm-51.435 59.164c18.606-24.757 35.948-44.235 52.024-58.434 15.64-13.815 30.983-23.43 46.025-28.845a1.925 1.925 0 012.029.471c.535.54.73 1.351.503 2.091-4.915 16.034-13.63 32.344-26.147 48.93-12.86 17.039-30.857 35.856-53.989 56.447l-20.445-20.66z" fill="#438AF5"/><path fill-rule="evenodd" clip-rule="evenodd" d="M588.311 67.055l-2.712 5.053-28.262 28.513-21.152 1.317-1.794-1.813 53.92-33.07zm21.337 21.38l-30.655 56.996-1.763-1.845.888-22.155 26.75-30.07 4.78-2.925z" fill="#fff"/><path d="M587.783 66.87c.402-.246.856.221.628.646l-2.712 5.052-.081.11-28.262 28.513a.447.447 0 01-.289.133l-21.152 1.317a.448.448 0 01-.344-.133l-1.794-1.813a.49.49 0 01.086-.755l53.92-33.07zm-52.94 33.575l1.218 1.231 20.783-1.294 28.093-28.342 1.855-3.455-51.949 31.86zm50.142-28.454l-.081.11.033-.061.048-.049zm24.135 16.26c.402-.246.856.221.628.646l-30.654 56.995a.445.445 0 01-.72.104l-1.764-1.846a.491.491 0 01-.133-.358l.889-22.154a.49.49 0 01.122-.305l26.749-30.07.104-.086 4.779-2.926zm-4.261 3.714l-26.589 29.889-.873 21.769 1.197 1.253 29.533-54.912-3.268 2.001z" fill="#438AF5"/><path d="M622.543 61.966c5.037 0 9.119-4.273 9.119-9.544 0-5.27-4.082-9.543-9.119-9.543-5.036 0-9.119 4.273-9.119 9.543s4.083 9.544 9.119 9.544z" fill="#fff"/><path d="M622.666 62.22c5.288 0 9.575-4.486 9.575-10.02s-4.287-10.02-9.575-10.02c-5.288 0-9.575 4.486-9.575 10.02s4.287 10.02 9.575 10.02zm0-.954c-4.785 0-8.663-4.06-8.663-9.066 0-5.007 3.878-9.066 8.663-9.066s8.663 4.059 8.663 9.066c0 5.007-3.878 9.066-8.663 9.066z" fill="#438AF5"/><path d="M622.544 57.353c-2.603 0-4.712-2.208-4.712-4.93 0-2.724 2.109-4.931 4.712-4.931 2.602 0 4.711 2.207 4.711 4.93 0 2.724-2.109 4.931-4.711 4.931zm0-.954c2.098 0 3.799-1.78 3.799-3.977 0-2.196-1.701-3.976-3.799-3.976-2.099 0-3.8 1.78-3.8 3.976 0 2.197 1.701 3.977 3.8 3.977zm8.807-31.304l.623-.697 16.251 15.906-.623.697-16.251-15.906zM312.853 227.296c-12.57 8.282-21.228 16.17-25.975 23.681-4.743 7.504-9.015 20.17-12.832 38.014l.89.208c3.794-17.74 8.034-30.31 12.702-37.696 4.664-7.378 13.231-15.183 25.701-23.399l-.486-.808z" fill="#438AF5"/><path fill-rule="evenodd" clip-rule="evenodd" d="M136.723 335.252c4.901 1.824 9.435 3.21 13.602 4.158 4.078.928 8.869 1.729 14.373 2.404 1.168.143 2.003 1.25 1.867 2.471a2.375 2.375 0 01-.049.28l-.06.25c-.301 1.265-1.468 2.087-2.702 1.904-5.117-.762-9.898-1.608-14.341-2.537-4.507-.944-9.056-2.573-13.648-4.887-1.001-.504-1.525-1.674-1.256-2.802.227-.951 1.148-1.529 2.057-1.291.053.014.105.03.157.05z" fill="#fff"/><path d="M154.738 341.2a109.534 109.534 0 01-4.426-.906 57.257 57.257 0 01-5.308-1.497l-.657 2.979a58.21 58.21 0 005.425 1.421c1.411.295 2.857.582 4.336.86l.63-2.857zm.9.163l-.631 2.862a267.48 267.48 0 009.056 1.5c.771.115 1.501-.399 1.689-1.19l.06-.25c.012-.052.021-.106.027-.16.079-.698-.399-1.33-1.066-1.412a173.077 173.077 0 01-9.135-1.35zm-11.505-2.861a86.336 86.336 0 01-7.458-3.013 1.095 1.095 0 00-.177-.063c-.602-.157-1.211.226-1.361.856l-.096.402c-.179.754.188 1.534.87 1.843a74.336 74.336 0 007.562 2.969l.66-2.994zm-7.094-3.888c4.915 2.24 9.404 3.823 13.467 4.747 4.077.928 8.868 1.729 14.373 2.404 1.167.143 2.003 1.25 1.866 2.471-.01.095-.027.188-.049.28l-.059.25c-.302 1.265-1.468 2.087-2.702 1.904-5.118-.762-9.898-1.607-14.341-2.537-4.491-.94-9.173-2.517-14.046-4.73-1.091-.495-1.679-1.743-1.391-2.95l.095-.402c.272-1.141 1.376-1.836 2.467-1.551.109.029.216.067.32.114z" fill="#438AF5"/><path fill-rule="evenodd" clip-rule="evenodd" d="M82.682 283.051l4.255-1.909 4.256 9.226-4.256 2.863-4.255-10.18zm14.287 3.499c-1.136 0-2.277-.196-3.04-.954-.817-.812-1.216-2.228-1.216-3.499 0-1.018.363-2.431.912-3.181.778-1.063 1.966-1.273 3.344-1.273 1.226 0 2.263.086 3.039.955.712.796 1.216 2.323 1.216 3.499 0 1.468-.472 3.006-1.52 3.817-.707.548-1.788.636-2.735.636z" fill="#DCEEFF"/><path d="M82.384 282.802l5.078-2.278 4.621 10.017-5.045 3.394-4.654-11.133zm5.06 9.725l3.467-2.332-3.89-8.434-3.433 1.539 3.857 9.227zm9.828-5.499c-1.455 0-2.57-.307-3.353-1.086-.869-.863-1.358-2.352-1.358-3.845 0-1.169.415-2.664 1.006-3.471.798-1.091 1.927-1.46 3.706-1.46 1.693 0 2.588.228 3.372 1.106.78.872 1.339 2.506 1.339 3.825 0 1.74-.596 3.342-1.704 4.201-.71.549-1.661.73-3.008.73zm0-.955c1.164 0 1.96-.151 2.465-.542.846-.656 1.335-1.97 1.335-3.434 0-1.087-.479-2.487-1.093-3.173-.562-.629-1.245-.804-2.707-.804-1.523 0-2.396.286-2.981 1.086-.46.628-.818 1.919-.818 2.891 0 1.251.407 2.491 1.074 3.153.578.575 1.482.823 2.725.823z" fill="#438AF5"/><path d="M320.999 149.127h-52.892c-1.007 0-1.824.855-1.824 1.909s.817 1.909 1.824 1.909h52.892c1.007 0 1.824-.855 1.824-1.909s-.817-1.909-1.824-1.909z" fill="#fff"/><path d="M268.107 149.127h52.892c1.007 0 1.824.855 1.824 1.909s-.817 1.909-1.824 1.909h-52.892c-1.007 0-1.824-.855-1.824-1.909s.817-1.909 1.824-1.909zm0 .955c-.504 0-.912.427-.912.954 0 .527.408.954.912.954h52.892c.504 0 .912-.427.912-.954 0-.527-.408-.954-.912-.954h-52.892z" fill="#438AF5"/><path d="M188.619 410.445l-24.013-49.318c-.343-.704-1.166-.984-1.839-.625-.674.359-.941 1.221-.598 1.925l24.012 49.318c.343.705 1.167.985 1.84.626s.941-1.221.598-1.926z" fill="#fff" stroke="#438AF5" stroke-width=".843"/><path fill-rule="evenodd" clip-rule="evenodd" d="M173.945 283.565c-1.732 1.536-9.85-4.986-11.586-5.755-.933-.413-1.37-1.54-.975-2.516.362-.896 1.306-1.367 2.199-1.097 5.333 1.611 8.339 2.78 9.019 3.505 1.723 1.84 3.075 4.327 1.343 5.863zM214.806 326.935l18.158-12.037a.592.592 0 01.851.219l6.948 12.581a.654.654 0 01-.197.853l-17.834 12.041a.592.592 0 01-.84-.19l-.009-.016-7.272-12.585a.654.654 0 01.195-.866z" fill="#fff"/><path d="M213.952 327.128l19.076-12.475a.593.593 0 01.838.203l7.732 12.949a.653.653 0 01-.193.876l-19.077 12.475a.592.592 0 01-.837-.203l-7.732-12.949a.652.652 0 01.193-.876zm.741.64l7.41 12.41 18.561-12.137-7.41-12.41-18.561 12.137z" fill="#438AF5"/><path d="M218.547 327.322l12.374-8.092a.592.592 0 01.837.203l5.155 8.633a.653.653 0 01-.193.876l-12.374 8.092a.593.593 0 01-.838-.203l-5.155-8.632a.654.654 0 01.194-.877zm5.573 8.734l11.859-7.755-4.833-8.093-11.858 7.755 4.832 8.093z" fill="#438AF5"/></svg>