<svg width="985" height="90" fill="none" xmlns="http://www.w3.org/2000/svg"><path d="M195 5l7.275 10.483 11.313-5.901 1.57 12.663 12.761.032-4.495 11.943 11.284 5.959-9.53 8.485 7.222 10.52-12.382 3.085 1.506 12.671-12.397-3.022-4.555 11.92L195 75.4l-9.573 8.438-4.555-11.92-12.397 3.022 1.506-12.67-12.382-3.086 7.222-10.52-9.53-8.486 11.284-5.958-4.495-11.943 12.761-.032 1.57-12.663 11.313 5.901L195 5z" fill="#FF6481"/><path d="M183.261 52h-3.017v-8.262l.029-1.357.049-1.484c-.502.5-.85.83-1.045.986l-1.641 1.318-1.455-1.816 4.6-3.662h2.48V52zm13.887-7.139c0 2.494-.41 4.34-1.231 5.537-.813 1.198-2.07 1.797-3.769 1.797-1.647 0-2.891-.618-3.731-1.855-.833-1.237-1.25-3.063-1.25-5.479 0-2.52.407-4.375 1.221-5.566.814-1.198 2.067-1.797 3.76-1.797 1.647 0 2.891.625 3.73 1.875.847 1.25 1.27 3.08 1.27 5.488zm-6.982 0c0 1.752.149 3.008.449 3.77.306.755.817 1.133 1.533 1.133.703 0 1.211-.384 1.523-1.153.313-.768.469-2.018.469-3.75 0-1.751-.159-3.008-.478-3.77-.313-.767-.817-1.151-1.514-1.151-.71 0-1.217.384-1.523 1.152-.306.761-.459 2.018-.459 3.77zm10.8-2.861c0 .827.072 1.445.215 1.855.15.404.388.606.713.606.625 0 .938-.82.938-2.461 0-1.628-.313-2.441-.938-2.441-.325 0-.563.201-.713.605-.143.397-.215 1.01-.215 1.836zm4.326-.02c0 1.498-.289 2.624-.869 3.38-.579.748-1.429 1.122-2.548 1.122-1.075 0-1.905-.384-2.491-1.152-.586-.775-.879-1.891-.879-3.35 0-2.975 1.123-4.462 3.37-4.462 1.1 0 1.943.387 2.529 1.162.592.768.888 1.868.888 3.3zm6.719-4.257L204.091 52h-2.343l7.919-14.277h2.344zm-1.045 9.98c0 .827.072 1.445.215 1.856.15.403.388.605.713.605.625 0 .938-.82.938-2.46 0-1.629-.313-2.442-.938-2.442-.325 0-.563.202-.713.605-.143.397-.215 1.01-.215 1.836zm4.326-.02c0 1.492-.289 2.614-.869 3.37-.579.748-1.429 1.123-2.548 1.123-1.075 0-1.905-.384-2.491-1.153-.586-.774-.879-1.888-.879-3.34 0-2.975 1.123-4.462 3.37-4.462 1.1 0 1.943.387 2.529 1.162.592.768.888 1.868.888 3.3z" fill="#BD082A"/><path d="M885.99 37.349l1.058 12.716 12.749.546-4.972 11.752 11.035 6.408-9.864 8.095 6.793 10.803-12.496 2.584.994 12.721-12.265-3.52-5.031 11.728-9.225-8.817-9.905 8.046-4.071-12.094-12.509 2.521 2.015-12.6-12.248-3.581 7.64-10.22-9.18-8.864 11.514-5.499-4.01-12.114 12.751.482 2.079-12.59 11.067 6.352 7.691-10.182 6.847 10.768 11.543-5.441z" fill="#FF6481"/><path d="M851.69 73.549l-2.613-1.509 4.131-7.155.704-1.16.784-1.262c-.685.184-1.151.294-1.398.332l-2.08.321-.352-2.3 5.815-.872 2.148 1.24-7.139 12.365zm15.596.76c-1.247 2.16-2.525 3.554-3.835 4.181-1.303.63-2.691.521-4.163-.329-1.426-.823-2.194-1.98-2.302-3.472-.104-1.488.449-3.277 1.656-5.37 1.26-2.181 2.54-3.585 3.841-4.21 1.303-.63 2.688-.522 4.154.324 1.427.824 2.191 1.987 2.293 3.49.108 1.505-.44 3.3-1.644 5.387zm-6.047-3.49c-.876 1.516-1.375 2.68-1.496 3.489-.113.807.141 1.39.761 1.747.609.352 1.241.273 1.896-.236.655-.509 1.415-1.513 2.281-3.013.875-1.517 1.366-2.685 1.47-3.504.114-.821-.131-1.406-.735-1.755-.614-.354-1.246-.276-1.895.237-.646.506-1.407 1.518-2.282 3.035zm10.784 2.922c-.413.716-.661 1.288-.742 1.714-.072.425.033.719.315.881.541.313 1.222-.241 2.042-1.662.814-1.41.95-2.27.409-2.583-.282-.163-.588-.107-.92.168-.323.272-.691.766-1.104 1.482zm3.756 2.146c-.748 1.297-1.562 2.128-2.442 2.492-.876.359-1.799.258-2.769-.302-.93-.537-1.457-1.285-1.58-2.243-.12-.964.184-2.077.914-3.34 1.487-2.577 3.204-3.304 5.149-2.18.953.55 1.489 1.307 1.609 2.27.129.962-.164 2.063-.881 3.303zm7.948-.328l-13.998 8.405-2.029-1.172 13.997-8.405 2.03 1.172zm-5.895 8.121c-.414.716-.661 1.288-.742 1.714-.072.425.033.718.315.881.541.313 1.222-.241 2.042-1.662.814-1.41.95-2.27.409-2.583-.282-.163-.589-.107-.92.168-.323.272-.691.766-1.104 1.482zm3.756 2.146c-.745 1.292-1.558 2.12-2.437 2.484-.876.358-1.799.258-2.769-.302-.93-.537-1.457-1.285-1.58-2.243-.121-.964.182-2.075.908-3.332 1.488-2.577 3.204-3.304 5.149-2.18.953.55 1.49 1.306 1.61 2.27.129.962-.165 2.063-.881 3.303z" fill="#BD082A"/><path d="M909.641-7l11.542 5.441 6.847-10.767 7.692 10.181 11.067-6.352 2.078 12.59 12.752-.482-4.011 12.114 11.515 5.5-9.181 8.862 7.64 10.22-12.247 3.582 2.015 12.6-12.509-2.52-4.071 12.093-9.905-8.046-9.225 8.817-5.031-11.727-12.266 3.52.995-12.722-12.496-2.584 6.793-10.803-9.864-8.095 11.035-6.408-4.973-11.752 12.749-.546L909.641-7z" fill="#FF6481"/><path d="M923.341 39.938l-2.613 1.509-4.131-7.155-.653-1.19-.7-1.31c-.184.685-.321 1.144-.412 1.377l-.761 1.962-2.169-.846 2.153-5.471 2.148-1.24 7.138 12.364zm8.457-13.125c1.247 2.159 1.815 3.963 1.703 5.41-.106 1.444-.894 2.591-2.366 3.441-1.426.824-2.812.91-4.158.258-1.34-.654-2.614-2.027-3.822-4.12-1.26-2.181-1.835-3.991-1.726-5.43.106-1.445.892-2.59 2.358-3.436 1.426-.824 2.815-.904 4.168-.242 1.358.66 2.639 2.033 3.843 4.119zm-6.047 3.49c.876 1.517 1.634 2.53 2.274 3.04.643.502 1.274.573 1.894.215.609-.351.857-.938.744-1.76-.114-.821-.604-1.982-1.47-3.481-.875-1.517-1.642-2.526-2.299-3.026-.654-.509-1.283-.59-1.887-.24-.614.354-.862.94-.743 1.759.116.813.612 1.977 1.487 3.494zm7.923-7.878c.414.716.785 1.216 1.114 1.5.332.275.638.33.92.168.542-.313.402-1.18-.418-2.6-.814-1.41-1.492-1.958-2.033-1.646-.282.163-.387.457-.314.881.074.416.318.981.731 1.697zm3.737-2.18c.749 1.297 1.061 2.418.937 3.361-.127.938-.676 1.687-1.646 2.247-.93.537-1.841.62-2.733.247-.894-.378-1.706-1.198-2.436-2.461-1.487-2.577-1.258-4.427.687-5.55.953-.55 1.876-.636 2.771-.258.897.37 1.704 1.174 2.42 2.414zm3.69-7.046l.28 16.324-2.03 1.172-.28-16.324 2.03-1.172zm4.085 9.165c.414.716.785 1.216 1.114 1.5.332.275.638.33.92.168.541-.313.402-1.18-.418-2.6-.814-1.41-1.492-1.958-2.033-1.646-.282.163-.387.457-.315.881.075.416.319.981.732 1.697zm3.737-2.18c.745 1.292 1.056 2.41.932 3.353-.128.938-.676 1.687-1.646 2.247-.93.537-1.841.62-2.733.247-.894-.378-1.705-1.196-2.431-2.453-1.487-2.577-1.259-4.426.687-5.55.952-.55 1.876-.636 2.771-.258.897.37 1.704 1.174 2.42 2.415z" fill="#BD082A"/><path d="M101.641 38l11.542 5.441 6.847-10.768 7.692 10.182 11.067-6.352 2.078 12.59 12.752-.482-4.011 12.114 11.515 5.5-9.181 8.862 7.64 10.22-12.247 3.582 2.015 12.6-12.509-2.52-4.071 12.093-9.905-8.046-9.225 8.817-5.031-11.727-12.266 3.519.995-12.721-12.496-2.584 6.793-10.802-9.864-8.096 11.034-6.408-4.972-11.752 12.749-.545L101.641 38z" fill="#FF6481"/><path d="M115.096 84.08l-2.613 1.509-4.131-7.155-.303-.525-.354-.652a34.428 34.428 0 00-.365-.691 35.658 35.658 0 00-.331-.632c-.009.05-.028.128-.056.235l-.097.36-.12.397a5.199 5.199 0 01-.131.38l-.761 1.962-2.177-.841 2.152-5.472 2.148-1.24 7.139 12.365zm8.068-12.901c.576.998 1.012 1.934 1.306 2.809.3.872.436 1.68.408 2.426a3.95 3.95 0 01-.596 2.013c-.37.597-.935 1.115-1.697 1.554-.716.414-1.422.63-2.118.648a4.144 4.144 0 01-2.042-.49c-.665-.345-1.311-.859-1.939-1.542-.621-.686-1.22-1.528-1.796-2.526-.576-.998-1.016-1.935-1.32-2.812-.298-.88-.435-1.692-.413-2.434a3.975 3.975 0 01.589-2.009c.366-.602.93-1.123 1.691-1.563.71-.41 1.413-.624 2.109-.643a4.22 4.22 0 012.051.485c.671.342 1.322.857 1.952 1.546.631.688 1.236 1.534 1.815 2.538zm-5.869 3.388c.813 1.41 1.547 2.4 2.199 2.97.653.57 1.278.684 1.876.338.586-.338.803-.933.649-1.784-.147-.855-.631-1.992-1.451-3.413-.817-1.415-1.561-2.403-2.23-2.964-.667-.57-1.294-.685-1.88-.346-.299.172-.501.409-.605.71-.099.297-.111.661-.036 1.091.076.43.24.93.493 1.498.249.562.578 1.196.985 1.9zm8.2-6.91c.267.462.537.768.812.918.271.144.561.127.871-.052.305-.176.465-.419.482-.73.016-.31-.111-.698-.381-1.166-.527-.914-1.09-1.198-1.687-.853-.311.18-.471.422-.482.73-.01.306.118.69.385 1.153zm3.821-2.229c.283.49.48.967.589 1.43.112.455.125.887.038 1.297a2.8 2.8 0 01-.565 1.15c-.291.356-.693.682-1.206.978-.479.277-.942.45-1.39.521a2.935 2.935 0 01-1.27-.09 3.087 3.087 0 01-1.121-.672 5.093 5.093 0 01-.953-1.22 5.447 5.447 0 01-.592-1.417 2.865 2.865 0 01-.042-1.284c.089-.405.276-.784.561-1.136.285-.353.682-.676 1.189-.969.485-.28.951-.455 1.399-.526.454-.073.881-.05 1.282.072s.776.342 1.125.66c.354.313.673.716.956 1.206zm3.857-6.151l-.553 14.686-1.937 1.118.553-14.686 1.937-1.118zm3.433 8.426c.267.462.538.769.812.918.271.145.562.127.872-.052.304-.176.465-.419.481-.729.017-.31-.11-.7-.381-1.167-.527-.913-1.089-1.198-1.687-.853-.31.18-.471.422-.481.73-.011.306.117.69.384 1.153zm3.821-2.229c.284.49.478.965.584 1.422.112.454.125.887.039 1.297-.09.405-.278.788-.565 1.15-.291.356-.693.682-1.206.978-.479.277-.94.449-1.382.516a2.934 2.934 0 01-1.27-.09 3.087 3.087 0 01-1.121-.672 4.994 4.994 0 01-.948-1.212 5.488 5.488 0 01-.593-1.417 2.894 2.894 0 01-.042-1.284c.084-.402.269-.779.554-1.131.285-.353.681-.675 1.189-.968.484-.28.951-.456 1.399-.526.453-.074.88-.05 1.282.072.401.121.775.34 1.124.658.354.314.673.717.956 1.207z" fill="#BD082A"/><path d="M88.2 5.307l-4.178 12.058 11.437 5.658-9.302 8.734 7.498 10.326-12.296 3.41 1.84 12.628-12.473-2.694-4.238 12.036-9.792-8.182-9.346 8.688-4.869-11.795-12.313 3.35 1.17-12.708L18.88 44.06l6.942-10.707-9.75-8.231 11.122-6.255-4.81-11.82 12.756-.369 1.235-12.7 11.465 5.6 6.996-10.672 7.55 10.287 11.154-6.198 1.904 12.617L88.2 5.307z" fill="#FF6481"/><path d="M42.1 23.936l-1.78-2.437 6.673-4.872 1.114-.776 1.227-.836c-.7-.11-1.171-.197-1.412-.263l-2.033-.547.61-2.246 5.67 1.555 1.462 2.004-11.532 8.418zm13.953 7.007c-2.014 1.47-3.746 2.227-5.198 2.27-1.447.05-2.672-.612-3.674-1.984-.97-1.33-1.204-2.7-.7-4.107.507-1.403 1.736-2.816 3.687-4.24 2.035-1.486 3.774-2.251 5.216-2.296 1.447-.05 2.67.61 3.668 1.977.971 1.33 1.2 2.703.685 4.119-.51 1.42-1.738 2.84-3.684 4.26zm-4.117-5.64c-1.414 1.033-2.341 1.895-2.78 2.586-.43.692-.433 1.328-.01 1.906.414.568 1.024.752 1.828.551.805-.2 1.907-.811 3.306-1.832 1.414-1.033 2.335-1.903 2.762-2.61.436-.705.449-1.339.038-1.901-.418-.574-1.028-.757-1.829-.552-.795.202-1.9.82-3.315 1.852zm8.68 7.037c-.668.487-1.126.91-1.373 1.267-.237.36-.26.67-.068.933.368.505 1.215.274 2.54-.694 1.315-.96 1.788-1.692 1.42-2.196-.193-.263-.496-.336-.91-.22-.405.12-.942.422-1.61.91zm2.566 3.482c-1.21.883-2.29 1.313-3.242 1.29-.946-.026-1.75-.491-2.41-1.396-.633-.867-.812-1.764-.537-2.69.28-.93 1.01-1.826 2.187-2.685 2.403-1.755 4.267-1.725 5.591.09.65.888.833 1.797.553 2.727-.271.932-.985 1.82-2.142 2.664zm7.4 2.917l-16.2 2.021-1.383-1.893 16.202-2.021 1.382 1.893zm-8.677 5.04c-.668.488-1.125.91-1.372 1.268-.237.359-.26.67-.068.933.368.504 1.215.273 2.54-.694 1.315-.96 1.788-1.692 1.42-2.197-.193-.263-.496-.336-.91-.219-.405.119-.942.422-1.61.91zm2.567 3.483c-1.204.879-2.282 1.307-3.234 1.285-.946-.027-1.75-.493-2.41-1.397-.633-.868-.812-1.764-.537-2.69.28-.93 1.007-1.824 2.18-2.68 2.402-1.754 4.266-1.724 5.59.09.649.889.833 1.798.553 2.728-.271.931-.985 1.82-2.142 2.664z" fill="#BD082A"/></svg>