<?xml version="1.0" encoding="utf-8"?><svg viewBox="0 0 907 616" xmlns="http://www.w3.org/2000/svg" xmlns:xlink="http://www.w3.org/1999/xlink"><style>:root>svg{display:none}:root>svg:target{display:block}</style><svg fill="none" viewBox="0 0 435 205" id="blog-1" xmlns="http://www.w3.org/2000/svg"><path d="M317.381 40.522c.241-2.03 3.185-2.03 3.426 0l2.019 17.018c2.607 21.975 19.933 39.3 41.908 41.908l17.019 2.02c2.028.24 2.028 3.184 0 3.425l-17.019 2.019c-21.975 2.608-39.301 19.934-41.908 41.909l-2.019 17.018c-.241 2.029-3.185 2.029-3.426 0l-2.019-17.018c-2.608-21.975-19.933-39.301-41.909-41.909l-17.018-2.019c-2.029-.241-2.029-3.185 0-3.425l17.018-2.02c21.976-2.607 39.301-19.933 41.909-41.908l2.019-17.018z" fill="#151515"/><path fill-rule="evenodd" clip-rule="evenodd" d="M89.626 105.125l-37.763-37.6v75.201l37.763-37.601zm37.762 0l-37.763-37.6v75.201l37.763-37.601zm37.763 0l-37.763-37.6v75.201l37.763-37.601zm0 0v-37.6l37.762 37.6-37.762 37.601v-37.601z" fill="#151515"/></svg><svg fill="none" viewBox="0 0 435 205" id="blog-2" xmlns="http://www.w3.org/2000/svg"><g clip-path="url(#bclip0)"><path d="M85.7 147.256c-18.147 0-31.012-12.654-42.913-26.493-12 13.924-24.825 26.493-42.913 26.493-20.307 0-36.826-16.431-36.826-36.628S-20.432 74-.126 74c18.154 0 31.41 12.913 42.913 26.22C54.283 86.927 67.553 74 85.701 74c20.308 0 36.825 16.431 36.825 36.628S106 147.256 85.701 147.256zM51.5 110.495c10.771 12.633 21.184 23.442 34.202 23.442 12.978 0 23.536-10.449 23.536-23.302 0-12.847-10.558-23.302-23.536-23.302-13.21-.006-23.617 10.742-34.202 23.162zM-.126 87.327c-12.977 0-23.536 10.454-23.536 23.301 0 12.854 10.559 23.302 23.536 23.302 13.084 0 23.53-10.903 34.202-23.448C23.477 98.075 13.078 87.327-.126 87.327z" fill="#151515"/></g><g clip-path="url(#bclip1)"><path d="M222.097 134.749c-11.95 0-20.422-8.333-28.26-17.447-7.902 9.17-16.348 17.447-28.259 17.447-13.373 0-24.252-10.821-24.252-24.121 0-13.3 10.879-24.12 24.252-24.12 11.954 0 20.685 8.503 28.259 17.266 7.571-8.754 16.31-17.267 28.26-17.267 13.374 0 24.252 10.82 24.252 24.121 0 13.3-10.884 24.121-24.252 24.121zm-22.523-24.209c7.094 8.32 13.951 15.438 22.523 15.438 8.547 0 15.5-6.881 15.5-15.346 0-8.459-6.953-15.344-15.5-15.344-8.699-.005-15.552 7.073-22.523 15.252zm-33.996-15.257c-8.547 0-15.5 6.885-15.5 15.345 0 8.465 6.953 15.345 15.5 15.345 8.616 0 15.495-7.18 22.522-15.441-6.979-8.171-13.828-15.249-22.522-15.249z" fill="#151515"/></g><g clip-path="url(#bclip2)"><path d="M318.997 126.709c-7.967 0-13.615-5.556-18.84-11.631-5.269 6.113-10.899 11.631-18.84 11.631-8.915 0-16.168-7.214-16.168-16.081 0-8.867 7.253-16.08 16.168-16.08 7.97 0 13.79 5.669 18.84 11.511 5.047-5.836 10.873-11.511 18.84-11.511 8.916 0 16.167 7.213 16.167 16.08 0 8.867-7.255 16.081-16.167 16.081zm-15.016-16.139c4.729 5.546 9.301 10.291 15.016 10.291 5.698 0 10.333-4.587 10.333-10.23 0-5.64-4.635-10.23-10.333-10.23-5.8-.003-10.368 4.716-15.016 10.169zm-22.664-10.172c-5.697 0-10.333 4.59-10.333 10.23 0 5.643 4.636 10.23 10.333 10.23 5.744 0 10.33-4.787 15.015-10.294-4.653-5.447-9.218-10.166-15.015-10.166z" fill="#151515"/></g><g clip-path="url(#bclip3)"><path d="M391.954 121.973c-5.621 0-9.606-3.919-13.292-8.206-3.717 4.313-7.689 8.206-13.291 8.206-6.29 0-11.407-5.089-11.407-11.345 0-6.255 5.117-11.345 11.407-11.345 5.622 0 9.729 4 13.291 8.121 3.561-4.117 7.671-8.12 13.292-8.12 6.29 0 11.406 5.089 11.406 11.344 0 6.256-5.119 11.345-11.406 11.345zm-10.593-11.386c3.336 3.913 6.561 7.261 10.593 7.261 4.02 0 7.29-3.237 7.29-7.218 0-3.979-3.27-7.217-7.29-7.217-4.092-.002-7.315 3.327-10.593 7.174zm-15.99-7.176c-4.02 0-7.29 3.238-7.29 7.217 0 3.981 3.27 7.217 7.29 7.217 4.052 0 7.288-3.377 10.593-7.262-3.283-3.843-6.504-7.172-10.593-7.172z" fill="#151515"/></g><defs><clipPath id="bclip0"><path fill="#fff" transform="translate(0 74)" d="M0 0h122.526v73.256H0z"/></clipPath><clipPath id="bclip1"><path fill="#fff" transform="translate(141.326 86.507)" d="M0 0h105.022v48.242H0z"/></clipPath><clipPath id="bclip2"><path fill="#fff" transform="translate(265.149 94.547)" d="M0 0h70.015v32.161H0z"/></clipPath><clipPath id="bclip3"><path fill="#fff" transform="translate(353.964 99.283)" d="M0 0h49.396v22.69H0z"/></clipPath></defs></svg><svg fill="none" viewBox="0 0 907 616" id="blog-3" xmlns="http://www.w3.org/2000/svg"><g clip-path="url(#cclip0)" fill="#1A1A1C"><path d="M401.036 417.486h99.575l-50.477-74.538-49.098 74.538zM376.124 233.647L261.929 65.044 147.436 235.358 32.869 65.044-206 417.487h129.075L32.869 250.802 146.54 416.168l.877 1.154.913-1.154 113.598-165.366 50.534 76.786 58.514-86.353 5.147-7.588zM1112.57 63H985.774L862.853 240.49 985.849 418h126.721L989.578 240.49 1112.57 63zM612.828 63l123.051 177.284-60.565 87.301-62.486 90.023H739.609l123.07-177.324L739.683 63H612.828z"/><path d="M665.06 327.588l5.24-7.547L500.649 65.044 381.233 241.235l-63.717 94.023-55.736 82.229H390.836l54.133-82.167 55.68-84.518 107.127 159.304 57.284-82.518z"/></g><defs><clipPath id="cclip0"><path fill="#fff" d="M0 0h907v616H0z"/></clipPath></defs></svg><svg fill="none" viewBox="0 0 185 45" id="logo" xmlns="http://www.w3.org/2000/svg"><path d="M19.913 24.973L31.837 7.865v26.05h-4.894V23.377l-7.03 10.13-7.04-10.13v10.54H7.979V7.886l11.934 17.087zM45.996 7.968l12.141 25.948h-5.79l-1.8-3.862H41.44l-1.8 3.862h-5.775L45.996 7.968zm2.441 17.575l-2.426-5.381-2.457 5.381h4.883zM65.556 8l4.422 7.703L74.416 8h5.983l-7.43 12.961 7.43 12.96h-5.983l-4.438-7.734-4.422 7.735h-5.983l7.398-12.96-7.398-12.962h5.983z" fill="#FF0040" fill-opacity=".92"/><path d="M93.168 8.005c-3.728 0-6.672 1.311-8.814 3.976-2.073 2.447-3.053 5.537-3.053 9.3 0 3.765 1.037 6.85 3.11 9.229 2.198 2.556 5.325 3.831 9.332 3.831 1.995.014 3.98-.273 5.89-.85a13.472 13.472 0 004.437-2.307V20.815H93.204v2.52h7.948V29.8a12.069 12.069 0 01-3.194 1.42 14.74 14.74 0 01-3.976.57c-3.303 0-5.786-.995-7.455-2.944-1.563-1.846-2.344-4.366-2.344-7.56 0-3.265.783-5.857 2.411-7.776 1.628-1.918 3.795-2.908 6.563-2.908 2.235 0 4.044.518 5.428 1.633a7.159 7.159 0 012.556 4.402h2.909c-.462-2.769-1.556-4.863-3.334-6.315-1.866-1.57-4.386-2.317-7.548-2.317zM114.563 14.998a5.1 5.1 0 00-3.333 1.172 6.685 6.685 0 00-1.918 2.52v-3.194h-2.805v18.347h2.805v-9.726a6.62 6.62 0 011.43-4.365 4.308 4.308 0 013.629-1.882 9.256 9.256 0 012.733.39v-2.857a6.562 6.562 0 00-2.541-.405zM126.814 14.998c-2.198 0-3.94.425-5.288 1.275a6.292 6.292 0 00-2.82 4.314l2.804.212a3.991 3.991 0 011.846-2.628 5.844 5.844 0 013.303-.814c3.193 0 4.79 1.524 4.79 4.614v.96l-4.402.072c-2.768.036-4.899.57-6.387 1.555a5.185 5.185 0 00-2.519 4.718 4.627 4.627 0 001.705 3.691 6.606 6.606 0 004.376 1.374 9.333 9.333 0 004.578-1.136 8.534 8.534 0 002.804-2.446v3.11h2.665V22.06c0-2.13-.57-3.795-1.633-5.003-1.26-1.384-3.178-2.058-5.822-2.058zm4.614 10.042v1.556c0 1.42-.674 2.695-1.986 3.794a6.94 6.94 0 01-4.614 1.706 4.499 4.499 0 01-2.768-.814 2.531 2.531 0 01-1.037-2.074c0-2.66 2.074-4.012 6.175-4.08l4.23-.088zM145.509 14.998a6.519 6.519 0 00-6.102 3.515v-3.017h-2.66v25.377h2.841V30.505c1.421 2.554 3.444 3.83 6.071 3.83a7.347 7.347 0 006.138-2.908 10.783 10.783 0 002.074-6.708c0-2.769-.71-5.003-2.074-6.776a7.446 7.446 0 00-6.288-2.945zm-.353 2.344a5.073 5.073 0 014.469 2.208c.85 1.275 1.312 3.017 1.312 5.184 0 2.167-.462 3.94-1.385 5.216a5.321 5.321 0 01-4.505 2.073 4.82 4.82 0 01-4.007-1.949c-1.063-1.311-1.556-3.017-1.556-5.148v-.352a8.465 8.465 0 011.385-5.04 4.895 4.895 0 014.287-2.192zM156.168 8.005v25.838h2.841V23.376a6.46 6.46 0 011.42-4.292 4.336 4.336 0 013.515-1.706 4.573 4.573 0 013.552 1.384 5.942 5.942 0 011.208 3.94v11.146h1.514l.082-7.776 1.24-.218v-3.582c0-2.343-.571-4.147-1.706-5.397s-2.805-1.882-4.936-1.882a6.503 6.503 0 00-5.889 3.52V8.005h-2.841z" fill="#fff"/><path d="M0 0h2.784v22.66H0V0z" fill="#000"/><path d="M0 2.758h2.784v22.666H0V2.758zM26.953 0v2.784H4.283V0h22.67z" fill="#fff"/><path d="M22.671 0v2.784H0V0h22.671z" fill="#fff"/><path fill-rule="evenodd" clip-rule="evenodd" d="M168.723 22.88l16.065 15.062h-7.04l1.709 3.964-4.657 2.012-1.695-3.93-4.5 5.012.118-22.12zm1.849 4.3l-.069 12.905 3.163-3.522 2.111 4.894 1.221-.527-2.096-4.86h5.154l-9.484-8.89z" fill="#fff"/></svg><svg fill="none" viewBox="0 0 357 88" id="logo-dark" xmlns="http://www.w3.org/2000/svg"><path d="M38.8 48.46l23-33v50.25h-9.44V45.38L38.8 64.92 25.22 45.38v20.33h-9.44V15.5L38.8 48.46zM89.11 15.66l23.42 50.05h-11.17l-3.47-7.45H80.32l-3.47 7.45H65.71l23.4-50.05zm4.71 33.9l-4.68-10.38-4.74 10.38h9.42zM126.84 15.72l8.53 14.86 8.56-14.86h11.54l-14.33 25 14.33 25h-11.54l-8.56-14.92-8.53 14.92H115.3l14.27-25-14.27-25h11.54z" fill="#000" fill-opacity=".92"/><path d="M180.1 15.73c-7.19 0-12.87 2.53-17 7.67-4 4.72-5.89 10.68-5.89 17.94 0 7.26 2 13.21 6 17.8 4.24 4.93 10.27 7.39 18 7.39a38.334 38.334 0 0011.36-1.64 26.003 26.003 0 008.56-4.45v-20h-20.96v4.86h15.33v12.47a23.272 23.272 0 01-6.16 2.74 28.431 28.431 0 01-7.67 1.1c-6.37 0-11.16-1.92-14.38-5.68-3.013-3.56-4.52-8.42-4.52-14.58 0-6.3 1.51-11.3 4.65-15 3.14-3.7 7.32-5.61 12.66-5.61 4.31 0 7.8 1 10.47 3.15a13.809 13.809 0 014.93 8.49h5.61c-.89-5.34-3-9.38-6.43-12.18-3.6-3.03-8.46-4.47-14.56-4.47zM221.37 29.22a9.841 9.841 0 00-6.43 2.26 12.92 12.92 0 00-3.7 4.86v-6.16h-5.41v35.39h5.41V46.81a12.764 12.764 0 012.76-8.42 8.309 8.309 0 017-3.63 17.843 17.843 0 015.27.75V30a12.65 12.65 0 00-4.9-.78zM245 29.22c-4.24 0-7.6.82-10.2 2.46a12.14 12.14 0 00-5.44 8.32l5.41.41a7.682 7.682 0 013.56-5.07 11.27 11.27 0 016.37-1.57c6.16 0 9.24 2.94 9.24 8.9v1.85l-8.49.14c-5.34.07-9.45 1.1-12.32 3a9.996 9.996 0 00-4.86 9.1 8.927 8.927 0 003.29 7.12 12.738 12.738 0 008.44 2.65 18 18 0 008.83-2.19 16.472 16.472 0 005.41-4.72v6h5.14V42.84c0-4.11-1.1-7.32-3.15-9.65-2.43-2.67-6.13-3.97-11.23-3.97zm8.9 19.37v3c0 2.74-1.3 5.2-3.83 7.32a13.39 13.39 0 01-8.9 3.29 8.68 8.68 0 01-5.34-1.57 4.863 4.863 0 01-2-4c0-5.13 4-7.74 11.91-7.87l8.16-.17zM281.06 29.22A12.572 12.572 0 00269.29 36v-5.82h-5.13v48.95h5.48v-20c2.74 4.926 6.643 7.39 11.71 7.39a14.185 14.185 0 0011.84-5.61 20.796 20.796 0 004-12.94c0-5.34-1.37-9.65-4-13.07a14.353 14.353 0 00-12.13-5.68zm-.68 4.52A9.782 9.782 0 01289 38c1.64 2.46 2.53 5.82 2.53 10s-.89 7.6-2.67 10.06a10.287 10.287 0 01-8.69 4 9.29 9.29 0 01-7.73-3.76c-2.05-2.53-3-5.82-3-9.93v-.68a16.33 16.33 0 012.67-9.72 9.442 9.442 0 018.27-4.23zM301.62 15.73v49.84h5.48V45.38c-.114-3 .859-5.94 2.74-8.28a8.367 8.367 0 016.78-3.29 8.815 8.815 0 016.85 2.67 11.451 11.451 0 012.33 7.6v21.5h2.92l.16-15 2.39-.42v-6.91c0-4.52-1.1-8-3.29-10.41s-5.41-3.63-9.52-3.63A12.544 12.544 0 00307.1 36V15.73h-5.48zM.39.29h5.37V44H.39V.29z" fill="#000"/><path d="M.39 5.61h5.37v43.72H.39V5.61zM52.38.29v5.37H8.65V.29h43.73z" fill="#000"/><path d="M44.12.29v5.37H.39V.29h43.73z" fill="#000"/><path d="M352.26 71.67H340.5l3.67 8.51-5.67 2.45-3.67-8.51-7.39 8.23.18-33.78 24.64 23.1z" stroke="#000" stroke-width="3.61"/></svg><svg viewBox="0 0 142 24" id="next-proj" xmlns="http://www.w3.org/2000/svg"><path d="M141.061 13.06a1.501 1.501 0 000-2.12l-9.546-9.547a1.5 1.5 0 00-2.122 2.122L137.879 12l-8.486 8.485a1.501 1.501 0 002.122 2.122l9.546-9.546zM0 13.5h140v-3H0v3z"/></svg><svg viewBox="0 0 32 32" id="toggle-to-dark" xmlns="http://www.w3.org/2000/svg"><path d="M28 17.053A12 12 0 1114.947 4 9.333 9.333 0 0028 17.053z" stroke="#151515" stroke-width="2" stroke-linecap="round" stroke-linejoin="round"/></svg><svg viewBox="0 0 32 32" id="toggle-to-light" xmlns="http://www.w3.org/2000/svg"><path d="M16 22.667a6.667 6.667 0 100-13.334 6.667 6.667 0 000 13.334zM16 1.333V4M16 28v2.667M5.627 5.627L7.52 7.52M24.48 24.48l1.893 1.893M1.333 16H4M28 16h2.667M5.627 26.373L7.52 24.48M24.48 7.52l1.893-1.893" stroke="#fff" stroke-width="2" stroke-linecap="round" stroke-linejoin="round"/></svg></svg>