<?xml version="1.0" encoding="utf-8"?><svg viewBox="0 0 907 616" xmlns="http://www.w3.org/2000/svg" xmlns:xlink="http://www.w3.org/1999/xlink"><style>:root>svg{display:none}:root>svg:target{display:block}</style><svg fill="none" viewBox="0 0 435 205" id="blog-1" xmlns="http://www.w3.org/2000/svg"><path d="M317.381 40.522c.241-2.03 3.185-2.03 3.426 0l2.019 17.018c2.607 21.975 19.933 39.3 41.908 41.908l17.019 2.02c2.028.24 2.028 3.184 0 3.425l-17.019 2.019c-21.975 2.608-39.301 19.934-41.908 41.909l-2.019 17.018c-.241 2.029-3.185 2.029-3.426 0l-2.019-17.018c-2.608-21.975-19.933-39.301-41.909-41.909l-17.018-2.019c-2.029-.241-2.029-3.185 0-3.425l17.018-2.02c21.976-2.607 39.301-19.933 41.909-41.908l2.019-17.018z" fill="#151515"/><path fill-rule="evenodd" clip-rule="evenodd" d="M89.626 105.125l-37.763-37.6v75.201l37.763-37.601zm37.762 0l-37.763-37.6v75.201l37.763-37.601zm37.763 0l-37.763-37.6v75.201l37.763-37.601zm0 0v-37.6l37.762 37.6-37.762 37.601v-37.601z" fill="#151515"/></svg><svg fill="none" viewBox="0 0 435 205" id="blog-2" xmlns="http://www.w3.org/2000/svg"><g clip-path="url(#bclip0)"><path d="M85.7 147.256c-18.147 0-31.012-12.654-42.913-26.493-12 13.924-24.825 26.493-42.913 26.493-20.307 0-36.826-16.431-36.826-36.628S-20.432 74-.126 74c18.154 0 31.41 12.913 42.913 26.22C54.283 86.927 67.553 74 85.701 74c20.308 0 36.825 16.431 36.825 36.628S106 147.256 85.701 147.256zM51.5 110.495c10.771 12.633 21.184 23.442 34.202 23.442 12.978 0 23.536-10.449 23.536-23.302 0-12.847-10.558-23.302-23.536-23.302-13.21-.006-23.617 10.742-34.202 23.162zM-.126 87.327c-12.977 0-23.536 10.454-23.536 23.301 0 12.854 10.559 23.302 23.536 23.302 13.084 0 23.53-10.903 34.202-23.448C23.477 98.075 13.078 87.327-.126 87.327z" fill="#151515"/></g><g clip-path="url(#bclip1)"><path d="M222.097 134.749c-11.95 0-20.422-8.333-28.26-17.447-7.902 9.17-16.348 17.447-28.259 17.447-13.373 0-24.252-10.821-24.252-24.121 0-13.3 10.879-24.12 24.252-24.12 11.954 0 20.685 8.503 28.259 17.266 7.571-8.754 16.31-17.267 28.26-17.267 13.374 0 24.252 10.82 24.252 24.121 0 13.3-10.884 24.121-24.252 24.121zm-22.523-24.209c7.094 8.32 13.951 15.438 22.523 15.438 8.547 0 15.5-6.881 15.5-15.346 0-8.459-6.953-15.344-15.5-15.344-8.699-.005-15.552 7.073-22.523 15.252zm-33.996-15.257c-8.547 0-15.5 6.885-15.5 15.345 0 8.465 6.953 15.345 15.5 15.345 8.616 0 15.495-7.18 22.522-15.441-6.979-8.171-13.828-15.249-22.522-15.249z" fill="#151515"/></g><g clip-path="url(#bclip2)"><path d="M318.997 126.709c-7.967 0-13.615-5.556-18.84-11.631-5.269 6.113-10.899 11.631-18.84 11.631-8.915 0-16.168-7.214-16.168-16.081 0-8.867 7.253-16.08 16.168-16.08 7.97 0 13.79 5.669 18.84 11.511 5.047-5.836 10.873-11.511 18.84-11.511 8.916 0 16.167 7.213 16.167 16.08 0 8.867-7.255 16.081-16.167 16.081zm-15.016-16.139c4.729 5.546 9.301 10.291 15.016 10.291 5.698 0 10.333-4.587 10.333-10.23 0-5.64-4.635-10.23-10.333-10.23-5.8-.003-10.368 4.716-15.016 10.169zm-22.664-10.172c-5.697 0-10.333 4.59-10.333 10.23 0 5.643 4.636 10.23 10.333 10.23 5.744 0 10.33-4.787 15.015-10.294-4.653-5.447-9.218-10.166-15.015-10.166z" fill="#151515"/></g><g clip-path="url(#bclip3)"><path d="M391.954 121.973c-5.621 0-9.606-3.919-13.292-8.206-3.717 4.313-7.689 8.206-13.291 8.206-6.29 0-11.407-5.089-11.407-11.345 0-6.255 5.117-11.345 11.407-11.345 5.622 0 9.729 4 13.291 8.121 3.561-4.117 7.671-8.12 13.292-8.12 6.29 0 11.406 5.089 11.406 11.344 0 6.256-5.119 11.345-11.406 11.345zm-10.593-11.386c3.336 3.913 6.561 7.261 10.593 7.261 4.02 0 7.29-3.237 7.29-7.218 0-3.979-3.27-7.217-7.29-7.217-4.092-.002-7.315 3.327-10.593 7.174zm-15.99-7.176c-4.02 0-7.29 3.238-7.29 7.217 0 3.981 3.27 7.217 7.29 7.217 4.052 0 7.288-3.377 10.593-7.262-3.283-3.843-6.504-7.172-10.593-7.172z" fill="#151515"/></g><defs><clipPath id="bclip0"><path fill="#fff" transform="translate(0 74)" d="M0 0h122.526v73.256H0z"/></clipPath><clipPath id="bclip1"><path fill="#fff" transform="translate(141.326 86.507)" d="M0 0h105.022v48.242H0z"/></clipPath><clipPath id="bclip2"><path fill="#fff" transform="translate(265.149 94.547)" d="M0 0h70.015v32.161H0z"/></clipPath><clipPath id="bclip3"><path fill="#fff" transform="translate(353.964 99.283)" d="M0 0h49.396v22.69H0z"/></clipPath></defs></svg><svg fill="none" viewBox="0 0 907 616" id="blog-3" xmlns="http://www.w3.org/2000/svg"><g clip-path="url(#cclip0)" fill="#1A1A1C"><path d="M401.036 417.486h99.575l-50.477-74.538-49.098 74.538zM376.124 233.647L261.929 65.044 147.436 235.358 32.869 65.044-206 417.487h129.075L32.869 250.802 146.54 416.168l.877 1.154.913-1.154 113.598-165.366 50.534 76.786 58.514-86.353 5.147-7.588zM1112.57 63H985.774L862.853 240.49 985.849 418h126.721L989.578 240.49 1112.57 63zM612.828 63l123.051 177.284-60.565 87.301-62.486 90.023H739.609l123.07-177.324L739.683 63H612.828z"/><path d="M665.06 327.588l5.24-7.547L500.649 65.044 381.233 241.235l-63.717 94.023-55.736 82.229H390.836l54.133-82.167 55.68-84.518 107.127 159.304 57.284-82.518z"/></g><defs><clipPath id="cclip0"><path fill="#fff" d="M0 0h907v616H0z"/></clipPath></defs></svg><svg viewBox="0 0 130 35" id="logo" xmlns="http://www.w3.org/2000/svg"><path d="M59.849 34.95h9.817l-4.977-7.35-4.84 7.35zM57.392 16.824L46.135.202 34.846 16.993 23.55.202 0 34.95h12.726L23.55 18.515l11.208 16.303.086.114.09-.114 11.2-16.303 4.982 7.57 5.77-8.513.506-.749zM130 0h-12.502l-12.119 17.499L117.506 35H130l-12.127-17.501L130 0zM80.73 0L92.86 17.479l-5.97 8.607-6.162 8.875h12.5l12.134-17.482L93.236 0H80.73z"/><path d="M85.88 26.086l.516-.744L69.67.202l-11.774 17.37-6.282 9.27-5.495 8.108h12.724l5.337-8.102 5.49-8.332L80.23 34.222l5.648-8.136z"/></svg><svg viewBox="0 0 142 24" id="next-proj" xmlns="http://www.w3.org/2000/svg"><path d="M141.061 13.06a1.501 1.501 0 000-2.12l-9.546-9.547a1.5 1.5 0 00-2.122 2.122L137.879 12l-8.486 8.485a1.501 1.501 0 002.122 2.122l9.546-9.546zM0 13.5h140v-3H0v3z"/></svg><svg viewBox="0 0 32 32" id="toggle-to-dark" xmlns="http://www.w3.org/2000/svg"><path d="M28 17.053A12 12 0 1114.947 4 9.333 9.333 0 0028 17.053z" stroke="#151515" stroke-width="2" stroke-linecap="round" stroke-linejoin="round"/></svg><svg viewBox="0 0 32 32" id="toggle-to-light" xmlns="http://www.w3.org/2000/svg"><path d="M16 22.667a6.667 6.667 0 100-13.334 6.667 6.667 0 000 13.334zM16 1.333V4M16 28v2.667M5.627 5.627L7.52 7.52M24.48 24.48l1.893 1.893M1.333 16H4M28 16h2.667M5.627 26.373L7.52 24.48M24.48 7.52l1.893-1.893" stroke="#fff" stroke-width="2" stroke-linecap="round" stroke-linejoin="round"/></svg></svg>