<svg width="60" height="60" fill="none" xmlns="http://www.w3.org/2000/svg"><path d="M30 40.174c6.195 0 11.218-5.14 11.218-11.478 0-6.34-5.023-11.479-11.218-11.479s-11.217 5.14-11.217 11.479c0 6.339 5.022 11.478 11.217 11.478zM34.956 45.913A10.963 10.963 0 0130 47.092c-1.78 0-3.462-.424-4.956-1.179M34.956 49.565A10.964 10.964 0 0130 50.744c-1.78 0-3.462-.424-4.956-1.179M30.26 3.652v4.696M12 10.957l3.652 3.13M4.696 28.696H9.39M50.609 28.696h4.695M44.348 14.087L48 10.957" stroke="#fff" stroke-width="2" stroke-linecap="round" stroke-linejoin="round"/><path d="M25.044 39.136V49.31A4.956 4.956 0 0030 54.266v0a4.956 4.956 0 004.956-4.956V39.136" stroke="#fff" stroke-width="2"/></svg>