<svg width="130" height="35" viewBox="0 0 130 35" fill="#fff" xmlns="http://www.w3.org/2000/svg">
<path d="M59.8486 34.9494H69.6659L64.6892 27.6006L59.8486 34.9494Z" />
<path d="M57.3925 16.8244L46.1339 0.201538L34.8458 16.9931L23.5504 0.201538L0 34.9495H12.7257L23.5504 18.5157L34.7576 34.8194L34.844 34.9332L34.9341 34.8194L46.1339 18.5157L51.116 26.0861L56.8851 17.5725L57.3925 16.8244Z" />
<path d="M130 0H117.498L105.379 17.499L117.506 35H130L117.873 17.499L130 0Z" />
<path d="M80.7295 0L92.8614 17.4787L86.8901 26.0859L80.7295 34.9614H92.7952H93.229L105.363 17.4787L93.2364 0H80.7295Z" />
<path d="M85.8791 26.0861L86.3957 25.3421L69.6696 0.201538L57.8962 17.5725L51.6142 26.8424L46.1191 34.9495H56.9512H58.843L64.18 26.8485L69.6696 18.5157L80.2314 34.2217L85.8791 26.0861Z" />
</svg>
